<?xml version="1.0" encoding="utf-8"?>
<!-- Generator: Adobe Illustrator 22.1.0, SVG Export Plug-In . SVG Version: 6.00 Build 0)  -->
<svg version="1.1" id="Calque_1" xmlns="http://www.w3.org/2000/svg" xmlns:xlink="http://www.w3.org/1999/xlink" x="0px" y="0px"
	 viewBox="0 0 500 600" style="enable-background:new 0 0 500 600;" xml:space="preserve">
<g>
	<circle style="fill:#FFFFFF;" cx="450.5" cy="332.5" r="4.5"/>
	<polygon style="fill:#FFFFFF;" points="450.8,318 448.8,326.9 452.2,326.9 	"/>
	<polygon style="fill:#FFFFFF;" points="465,332.8 456.1,330.8 456.1,334.2 	"/>
	<polygon style="fill:#FFFFFF;" points="450.2,347 452.2,338.1 448.8,338.1 	"/>
	<polygon style="fill:#FFFFFF;" points="436,332.2 444.9,334.2 444.9,330.8 	"/>
</g>
<g id="etoileAnima2">
	<circle style="fill:#FFFFFF;" cx="103.5" cy="238.5" r="4.5"/>
	<polygon style="fill:#FFFFFF;" points="103.8,224 101.8,232.9 105.2,232.9 	"/>
	<polygon style="fill:#FFFFFF;" points="118,238.8 109.1,236.8 109.1,240.2 	"/>
	<polygon style="fill:#FFFFFF;" points="103.2,253 105.2,244.1 101.8,244.1 	"/>
	<polygon style="fill:#FFFFFF;" points="89,238.2 97.9,240.2 97.9,236.8 	"/>
</g>
<g id="etoileduhaut">
	<linearGradient id="SVGID_1_" gradientUnits="userSpaceOnUse" x1="380.1154" y1="52.5" x2="390.8846" y2="52.5">
		<stop  offset="4.695012e-07" style="stop-color:#F559AA"/>
		<stop  offset="1" style="stop-color:#F6DA61"/>
	</linearGradient>
	<circle style="fill:url(#SVGID_1_);" cx="385.5" cy="52.5" r="5.4"/>
	<linearGradient id="SVGID_2_" gradientUnits="userSpaceOnUse" x1="383.4808" y1="40.3846" x2="387.5192" y2="40.3846">
		<stop  offset="4.695012e-07" style="stop-color:#F559AA"/>
		<stop  offset="1" style="stop-color:#F6DA61"/>
	</linearGradient>
	<polygon style="fill:url(#SVGID_2_);" points="385.8,35 383.5,45.8 387.5,45.8 	"/>
	<linearGradient id="SVGID_3_" gradientUnits="userSpaceOnUse" x1="392.2308" y1="52.5" x2="403" y2="52.5">
		<stop  offset="4.695012e-07" style="stop-color:#F559AA"/>
		<stop  offset="1" style="stop-color:#F6DA61"/>
	</linearGradient>
	<polygon style="fill:url(#SVGID_3_);" points="403,52.8 392.2,50.5 392.2,54.5 	"/>
	<linearGradient id="SVGID_4_" gradientUnits="userSpaceOnUse" x1="383.4808" y1="64.6154" x2="387.5192" y2="64.6154">
		<stop  offset="4.695012e-07" style="stop-color:#F559AA"/>
		<stop  offset="1" style="stop-color:#F6DA61"/>
	</linearGradient>
	<polygon style="fill:url(#SVGID_4_);" points="385.2,70 387.5,59.2 383.5,59.2 	"/>
	<linearGradient id="SVGID_5_" gradientUnits="userSpaceOnUse" x1="368" y1="52.5" x2="378.7692" y2="52.5">
		<stop  offset="4.695012e-07" style="stop-color:#F559AA"/>
		<stop  offset="1" style="stop-color:#F6DA61"/>
	</linearGradient>
	<polygon style="fill:url(#SVGID_5_);" points="368,52.2 378.8,54.5 378.8,50.5 	"/>
</g>
<g id="etoilebas">
	<linearGradient id="SVGID_6_" gradientUnits="userSpaceOnUse" x1="150.1154" y1="530.5" x2="160.8846" y2="530.5">
		<stop  offset="4.695012e-07" style="stop-color:#F559AA"/>
		<stop  offset="1" style="stop-color:#F6DA61"/>
	</linearGradient>
	<circle style="fill:url(#SVGID_6_);" cx="155.5" cy="530.5" r="5.4"/>
	<linearGradient id="SVGID_7_" gradientUnits="userSpaceOnUse" x1="153.4808" y1="518.3846" x2="157.5192" y2="518.3846">
		<stop  offset="4.695012e-07" style="stop-color:#F559AA"/>
		<stop  offset="1" style="stop-color:#F6DA61"/>
	</linearGradient>
	<polygon style="fill:url(#SVGID_7_);" points="155.8,513 153.5,523.8 157.5,523.8 	"/>
	<linearGradient id="SVGID_8_" gradientUnits="userSpaceOnUse" x1="162.2308" y1="530.5" x2="173" y2="530.5">
		<stop  offset="4.695012e-07" style="stop-color:#F559AA"/>
		<stop  offset="1" style="stop-color:#F6DA61"/>
	</linearGradient>
	<polygon style="fill:url(#SVGID_8_);" points="173,530.8 162.2,528.5 162.2,532.5 	"/>
	<linearGradient id="SVGID_9_" gradientUnits="userSpaceOnUse" x1="153.4808" y1="542.6154" x2="157.5192" y2="542.6154">
		<stop  offset="4.695012e-07" style="stop-color:#F559AA"/>
		<stop  offset="1" style="stop-color:#F6DA61"/>
	</linearGradient>
	<polygon style="fill:url(#SVGID_9_);" points="155.2,548 157.5,537.2 153.5,537.2 	"/>
	<linearGradient id="SVGID_10_" gradientUnits="userSpaceOnUse" x1="138" y1="530.5" x2="148.7692" y2="530.5">
		<stop  offset="4.695012e-07" style="stop-color:#F559AA"/>
		<stop  offset="1" style="stop-color:#F6DA61"/>
	</linearGradient>
	<polygon style="fill:url(#SVGID_10_);" points="138,530.2 148.8,532.5 148.8,528.5 	"/>
</g>
<g id="etoiledore">
	<linearGradient id="SVGID_11_" gradientUnits="userSpaceOnUse" x1="249.1154" y1="565.5" x2="259.8846" y2="565.5">
		<stop  offset="4.695012e-07" style="stop-color:#F559AA"/>
		<stop  offset="1" style="stop-color:#F6DA61"/>
	</linearGradient>
	<circle style="fill:url(#SVGID_11_);" cx="254.5" cy="565.5" r="5.4"/>
	<linearGradient id="SVGID_12_" gradientUnits="userSpaceOnUse" x1="252.4808" y1="553.3846" x2="256.5192" y2="553.3846">
		<stop  offset="4.695012e-07" style="stop-color:#F559AA"/>
		<stop  offset="1" style="stop-color:#F6DA61"/>
	</linearGradient>
	<polygon style="fill:url(#SVGID_12_);" points="254.8,548 252.5,558.8 256.5,558.8 	"/>
	<linearGradient id="SVGID_13_" gradientUnits="userSpaceOnUse" x1="261.2308" y1="565.5" x2="272" y2="565.5">
		<stop  offset="4.695012e-07" style="stop-color:#F559AA"/>
		<stop  offset="1" style="stop-color:#F6DA61"/>
	</linearGradient>
	<polygon style="fill:url(#SVGID_13_);" points="272,565.8 261.2,563.5 261.2,567.5 	"/>
	<linearGradient id="SVGID_14_" gradientUnits="userSpaceOnUse" x1="252.4808" y1="577.6154" x2="256.5192" y2="577.6154">
		<stop  offset="4.695012e-07" style="stop-color:#F559AA"/>
		<stop  offset="1" style="stop-color:#F6DA61"/>
	</linearGradient>
	<polygon style="fill:url(#SVGID_14_);" points="254.2,583 256.5,572.2 252.5,572.2 	"/>
	<linearGradient id="SVGID_15_" gradientUnits="userSpaceOnUse" x1="237" y1="565.5" x2="247.7692" y2="565.5">
		<stop  offset="4.695012e-07" style="stop-color:#F559AA"/>
		<stop  offset="1" style="stop-color:#F6DA61"/>
	</linearGradient>
	<polygon style="fill:url(#SVGID_15_);" points="237,565.2 247.8,567.5 247.8,563.5 	"/>
</g>
<g>
	<g>
		<path style="fill:#FFFFFF;" d="M341.8,304.3c0,0.3-0.1,0.6,0.1,0.9c0.2,0.3,0.7,0.3,0.9,0c0.2-0.3,0.1-0.6,0.1-0.9
			C342.8,303.6,341.8,303.6,341.8,304.3L341.8,304.3z"/>
	</g>
</g>
<g>
	<g>
		<path style="fill:#FFFFFF;" d="M377.1,270.4c0,0.1,0,0.1,0.1,0.2c0-0.2,0.1-0.4,0.1-0.6c-0.2,0.3-0.4,0.6-0.4,1.1
			c0,0.4,0.2,0.8,0.4,1.1c0.1-0.6,0.2-1.2,0.2-1.9c0,0,0,0,0,0c-0.6,0.5-0.6,1.5-0.3,2.1c0,0.1,0.1,0.1,0.1,0.2
			c0.8-0.8,1.6-1.6,2.4-2.4c-0.3-0.2-0.7-0.3-1.1-0.3c-0.1,0-0.1,0-0.2,0c0.1,0,0.1,0,0,0c-0.4-0.1-0.8-0.2-1.2-0.2
			c-0.4,0-1,0.3-1.2,0.7c0,0.1-0.1,0.2-0.1,0.3c-0.2,0.4,0,1.1,0.4,1.4c0.3,0.3,0.7,0.4,1,0.7c0.3,0.2-0.2-0.2,0.2,0.2
			c0.3,0.3,0.6,0.4,1,0.5c1.4,0.5,2.8-1.4,2-2.6c0-0.1-0.1-0.1-0.1-0.2c-0.6-0.8-1.5-1.1-2.4-0.6c0,0,0,0,0,0
			c0.6,0.1,1.2,0.2,1.9,0.2c-0.5-0.6-1-0.7-1.7-0.7c0.2,0.1,0.4,0.2,0.6,0.2c0,0-0.1-0.1-0.1-0.1
			C377.8,269.3,376.9,269.7,377.1,270.4L377.1,270.4z"/>
	</g>
</g>
<g>
	<g>
		<path style="fill:#FFFFFF;" d="M366.5,107.9c0.3,0.5,0.7,0.8,1.2,1c0.6,0.3,1.2,0.1,1.8-0.1c-0.2,0-0.4,0-0.6,0c0,0,0.1,0,0.1,0
			c0.6,0.2,1.2-0.1,1.6-0.7c0.9-1.3,0.2-3.3-1.3-3.7c-1.3-0.4-2.8,0.2-3.2,1.5c-0.1,0.5,0.1,1,0.6,1.1c0.5,0.2,0.9,0,1.2-0.4
			c0,0-0.1,0.1-0.1,0.1c0.1-0.2-0.1,0,0,0c0,0,0.2,0,0.1,0c-0.1,0,0.1,0,0.1,0c0.1,0-0.2-0.1,0,0c0.1,0,0.1,0,0.2,0.1
			c-0.3-0.1,0.1,0.1,0.2,0.1c0,0-0.1-0.1-0.1-0.1c0.1,0.2-0.1-0.3,0,0c0-0.1,0-0.2,0-0.1c0-0.1,0-0.2,0.1-0.3c-0.1,0.2,0,0,0.1,0
			c-0.1,0.1-0.2,0.3-0.3,0.5c-0.1,0.1-0.1,0.2-0.1,0.4c0,0.2,0,0.5,0.1,0.7c0-0.3,0.1-0.6,0.1-0.9c0,0.1-0.1,0.1-0.1,0.2
			c0.1-0.1,0.3-0.3,0.4-0.4c-0.2,0.1-0.2,0.1-0.4,0.2c-0.1,0-0.2,0.1-0.4,0.1c-0.2,0.1,0.1,0-0.1,0c0.1,0,0.3,0,0.4,0
			c-0.2,0-0.3-0.1-0.4-0.2C367.1,106.4,366.2,107.3,366.5,107.9L366.5,107.9z"/>
	</g>
</g>
<g>
	<g>
		<path style="fill:#FFFFFF;" d="M183.3,293.4c-0.5-0.4-0.8-0.7-1.5-0.7c-0.6,0-1.1,0.5-1.1,1.1c0,0.6,0.3,1,0.7,1.5
			C182.5,296.5,184.5,294.5,183.3,293.4L183.3,293.4z"/>
	</g>
</g>
<g>
	<g>
		<path style="fill:#FFFFFF;" d="M116.3,321.1c1.8,0,1.8-2.9,0-2.9C114.5,318.2,114.5,321.1,116.3,321.1L116.3,321.1z"/>
	</g>
</g>
<g>
	<g>
		<linearGradient id="SVGID_16_" gradientUnits="userSpaceOnUse" x1="378.3333" y1="539.0001" x2="379.6667" y2="539.0001">
			<stop  offset="2.347506e-07" style="stop-color:#B8E4E7"/>
			<stop  offset="1" style="stop-color:#F5DDE8"/>
		</linearGradient>
		<path style="fill:url(#SVGID_16_);" d="M379.4,538c-0.5,0.1-1.1,0.2-1.4,0.6c-0.2,0.2-0.2,0.5,0,0.7c0.4,0.4,0.9,0.5,1.4,0.6
			c0.6,0.1,1.3-0.3,1.3-1C380.7,538.3,380,537.9,379.4,538L379.4,538z"/>
	</g>
</g>
<g>
	<g>
		<linearGradient id="SVGID_17_" gradientUnits="userSpaceOnUse" x1="421.9798" y1="526.5056" x2="423.3535" y2="526.5056">
			<stop  offset="2.347506e-07" style="stop-color:#B8E4E7"/>
			<stop  offset="1" style="stop-color:#F5DDE8"/>
		</linearGradient>
		<path style="fill:url(#SVGID_17_);" d="M421.8,525.1c-0.3,0.4-0.6,0.7-0.7,1.2c-0.4,1.1,0.9,2.4,2,2c0.5-0.2,0.8-0.4,1.2-0.7
			c0.7-0.6,0.7-1.8,0-2.4C423.5,524.5,422.4,524.4,421.8,525.1L421.8,525.1z"/>
	</g>
</g>
<g>
	<g>
		<linearGradient id="SVGID_18_" gradientUnits="userSpaceOnUse" x1="449.1667" y1="492.8032" x2="450.1667" y2="492.8032">
			<stop  offset="2.347506e-07" style="stop-color:#B8E4E7"/>
			<stop  offset="1" style="stop-color:#F5DDE8"/>
		</linearGradient>
		<path style="fill:url(#SVGID_18_);" d="M451.4,492.5c0-0.2,0-0.3-0.1-0.5c-0.3-1.6-2.9-1.6-3.2,0c0,0.2-0.1,0.3-0.1,0.5
			c-0.1,0.6,0,1.2,0.4,1.7c0.3,0.3,0.8,0.5,1.2,0.5c0.4,0,0.9-0.2,1.2-0.5C451.4,493.8,451.4,493.2,451.4,492.5L451.4,492.5z"/>
	</g>
</g>
<g>
	<g>
		<linearGradient id="SVGID_19_" gradientUnits="userSpaceOnUse" x1="56.1283" y1="201.9062" x2="57.407" y2="201.9062">
			<stop  offset="2.347506e-07" style="stop-color:#B8E4E7"/>
			<stop  offset="1" style="stop-color:#F5DDE8"/>
		</linearGradient>
		<path style="fill:url(#SVGID_19_);" d="M56.7,204.2C56.7,204.2,56.7,204.2,56.7,204.2c-0.2-0.1-0.5-0.1-0.9-0.1
			c0.7,0.4,1.7,0.4,2.2-0.3c-0.3,0.1-0.5,0.3-0.8,0.4c0.1,0,0.1,0,0.2-0.1c1.1-0.2,1.7-1.5,1.4-2.5c0-0.1-0.1-0.3-0.2-0.4
			c-0.3-0.8,0.1,0.3,0,0c-0.2-0.4-0.4-0.7-0.7-1.1c-0.5-0.7-1.7-0.7-2.4-0.3c-0.2,0.1,0.8-0.3,0.1-0.1c-0.1,0-0.2,0.1-0.3,0.1
			c-0.6,0.4-0.8,1-0.7,1.7c0-0.3,0-0.4,0-0.3c0.1-0.3,0.2-0.6,0.2-0.9c0.1-0.1,0.2-0.2,0.3-0.3c-0.6,0.7-0.8,1.6-0.3,2.4
			c0.1,0.3-0.1-0.5,0,0c0-0.4,0-0.7,0-1.1c0,0.1,0,0.2-0.1,0.3c-0.3,1.1,0.4,2.2,1.4,2.5c0,0,0,0,0,0c-0.3-0.2-0.6-0.3-0.9-0.5
			c0,0,0.1,0.1,0.1,0.1c-0.1-0.6-0.3-1.1-0.4-1.7c-0.1,0.6,0,1,0.2,1.5c0.1-0.5,0.1-1,0.2-1.5c0,0,0,0-0.1,0.1
			c-0.4,0.4-0.5,1-0.2,1.5C55.6,204.2,56.1,204.3,56.7,204.2L56.7,204.2z"/>
	</g>
</g>
<g>
	<g>
		<linearGradient id="SVGID_20_" gradientUnits="userSpaceOnUse" x1="295.6667" y1="27" x2="296.3333" y2="27">
			<stop  offset="4.695012e-07" style="stop-color:#F559AA"/>
			<stop  offset="1" style="stop-color:#F6DA61"/>
		</linearGradient>
		<path style="fill:url(#SVGID_20_);" d="M295.7,28.4c0.2,0,0.3,0,0.5,0c0.8,0,1.4-0.7,1.4-1.4c0-0.8-0.7-1.4-1.4-1.4
			c-0.2,0-0.3,0-0.5,0c-0.7,0.1-1.4,0.6-1.4,1.4C294.3,27.8,294.9,28.3,295.7,28.4L295.7,28.4z"/>
	</g>
</g>
<g>
	<g>
		<linearGradient id="SVGID_21_" gradientUnits="userSpaceOnUse" x1="420.5" y1="204.1337" x2="421.5" y2="204.1337">
			<stop  offset="4.695012e-07" style="stop-color:#F559AA"/>
			<stop  offset="1" style="stop-color:#F6DA61"/>
		</linearGradient>
		<path style="fill:url(#SVGID_21_);" d="M422.5,203.9c0-0.2,0-0.3-0.1-0.5c-0.2-1.4-2.6-1.4-2.8,0c0,0.2,0,0.3-0.1,0.5
			c-0.1,1,0.4,1.9,1.5,1.9C422.1,205.9,422.6,204.9,422.5,203.9L422.5,203.9z"/>
	</g>
</g>
<g>
	<g>
		<linearGradient id="SVGID_22_" gradientUnits="userSpaceOnUse" x1="427.3131" y1="308.3154" x2="428.6869" y2="308.3154">
			<stop  offset="4.695012e-07" style="stop-color:#F559AA"/>
			<stop  offset="1" style="stop-color:#F6DA61"/>
		</linearGradient>
		<path style="fill:url(#SVGID_22_);" d="M426.6,309.3c0,0.1,0.1,0.1,0.1,0.2c0-0.3-0.1-0.6-0.1-1c0,0.1,0,0.1,0,0.2
			c-0.1,0.9,0.5,1.5,1.4,1.4c0.1,0,0.1,0,0.2,0c-0.3,0-0.6-0.1-1-0.1c0.8,0.4,1.8,0.5,2.5-0.2c0.7-0.7,0.8-1.8,0.2-2.6
			c-0.6-0.7-1.7-1-2.5-0.5C426.4,307.3,426.2,308.3,426.6,309.3L426.6,309.3z"/>
	</g>
</g>
<g>
	<g>
		<linearGradient id="SVGID_23_" gradientUnits="userSpaceOnUse" x1="252.5" y1="532.9941" x2="253.5" y2="532.9941">
			<stop  offset="4.695012e-07" style="stop-color:#F559AA"/>
			<stop  offset="1" style="stop-color:#F6DA61"/>
		</linearGradient>
		<path style="fill:url(#SVGID_23_);" d="M251.2,532c0,0.7,0,1.3,0,2c0,0.9,0.8,1.9,1.8,1.8c1,0,1.8-0.8,1.8-1.8c0-0.7,0-1.3,0-2
			c0-1-0.8-1.9-1.8-1.8C252,530.2,251.2,531,251.2,532L251.2,532z"/>
	</g>
</g>
<g>
	<g>
		<linearGradient id="SVGID_24_" gradientUnits="userSpaceOnUse" x1="50.9005" y1="276.9106" x2="51.9012" y2="276.9106">
			<stop  offset="4.695012e-07" style="stop-color:#F559AA"/>
			<stop  offset="1" style="stop-color:#F6DA61"/>
		</linearGradient>
		<path style="fill:url(#SVGID_24_);" d="M49.7,276.7c0,0.2-0.1,0.3,0-0.1c-0.1,0.3-0.1,0.7,0,1c0.1,0.3,0.2,0.6,0.4,0.8
			c0.1,0.1,0.2,0.2,0.3,0.3c-0.2-0.1-0.4-0.3-0.5-0.5c-0.1-0.2-0.1-0.5-0.2-0.7c0,0.1,0,0.1,0-0.2c-0.1,0.4,0,0.8,0.3,1.1
			c0.1,0.1,0.2,0.2,0.3,0.2c0.3,0.1,0.4,0.2,0.2,0.1c-0.2-0.1-0.2-0.1,0.2,0.1c0.4,0.1,0.8,0.1,1.1-0.1c1.2-0.5,1.3-1.8,0.8-2.8
			c-0.3-0.6-1.2-1-1.9-0.8C50.3,275.3,49.6,276,49.7,276.7L49.7,276.7z"/>
	</g>
</g>
<g>
	<g>
		<linearGradient id="SVGID_25_" gradientUnits="userSpaceOnUse" x1="23.6576" y1="29.2519" x2="26.5666" y2="29.2519">
			<stop  offset="4.695012e-07" style="stop-color:#F559AA"/>
			<stop  offset="1" style="stop-color:#F6DA61"/>
		</linearGradient>
		<path style="fill:url(#SVGID_25_);" d="M24.5,27.1c-0.4,0.6-0.6,1.2-0.9,1.8c-0.1,0.3-0.3,0.5-0.4,0.8c-0.2,0.4-0.3,0.8-0.4,1.3
			c-0.1,1.1,1.1,1.5,2,1.1c0.7-0.3,1.1-0.9,1.6-1.4c0.2-0.2,0.4-0.4,0.6-0.6c0.3-0.3,0.6-0.7,0.9-1.1c0.6-0.8,0.2-2.2-0.7-2.6
			C26.2,25.9,25.1,26.3,24.5,27.1L24.5,27.1z"/>
	</g>
</g>
<g id="pointanimation2">
	<g>
		<linearGradient id="SVGID_26_" gradientUnits="userSpaceOnUse" x1="431.7268" y1="89.8945" x2="434.553" y2="89.8945">
			<stop  offset="4.695012e-07" style="stop-color:#F559AA"/>
			<stop  offset="1" style="stop-color:#F6DA61"/>
		</linearGradient>
		<path style="fill:url(#SVGID_26_);" d="M432.3,88.6C432.1,88.9,432.6,88.3,432.3,88.6C432.1,88.7,431.8,88.9,432.3,88.6
			c0.3-0.1,0.4-0.2,0.2-0.1c0.3,0,0.4,0,0.2,0c0.2,0,0.4,0,0.6,0.1c-0.2-0.1-0.3-0.2-0.5-0.2c-1.2-0.3-2.6,0.8-2.1,2.1
			c0.4,1.1,1.4,1.7,2.5,1.6c1.1-0.1,2-0.6,2.5-1.5c0.5-0.9,0.2-2.2-0.7-2.7C434.1,87.4,432.8,87.6,432.3,88.6L432.3,88.6z"/>
	</g>
</g>
<g>
	<g>
		<linearGradient id="SVGID_27_" gradientUnits="userSpaceOnUse" x1="54.9963" y1="561.6667" x2="59.0037" y2="561.6667">
			<stop  offset="4.695012e-07" style="stop-color:#F559AA"/>
			<stop  offset="1" style="stop-color:#F6DA61"/>
		</linearGradient>
		<path style="fill:url(#SVGID_27_);" d="M57,563.7c2.7,0,2.7-4.1,0-4.1C54.3,559.6,54.3,563.7,57,563.7L57,563.7z"/>
	</g>
</g>
<g id="point3">
	<g>
		<linearGradient id="SVGID_28_" gradientUnits="userSpaceOnUse" x1="102.1667" y1="518.4915" x2="105.1667" y2="518.4915">
			<stop  offset="4.695012e-07" style="stop-color:#F559AA"/>
			<stop  offset="1" style="stop-color:#F6DA61"/>
		</linearGradient>
		<path style="fill:url(#SVGID_28_);" d="M99.3,520.9c0.1,0.2,0.2,0.3,0.3,0.5c1.7,3.1,6.5,3.1,8.2,0c0.1-0.2,0.2-0.3,0.3-0.5
			c0.9-1.6,0.9-3.5,0-5.1c-0.9-1.5-2.6-2.5-4.4-2.5c-1.8,0-3.5,1-4.4,2.5C98.4,517.4,98.4,519.3,99.3,520.9L99.3,520.9z"/>
	</g>
</g>
<g id="point2">
	<g>
		<linearGradient id="SVGID_29_" gradientUnits="userSpaceOnUse" x1="313" y1="247.6671" x2="313.6667" y2="247.6671">
			<stop  offset="2.347506e-07" style="stop-color:#B8E4E7"/>
			<stop  offset="1" style="stop-color:#F5DDE8"/>
		</linearGradient>
		<path style="fill:url(#SVGID_29_);" d="M312.1,250.9c0.2,0,0.4,0.1,0.6,0.1c1.2,0.2,2.4,0.1,3.3-0.9c0.6-0.7,1-1.5,1-2.4
			c0-0.9-0.4-1.8-1-2.4c-0.9-0.9-2.1-1.1-3.3-0.9c-0.2,0-0.4,0.1-0.6,0.1c-0.3,0.1-0.5,0.2-0.8,0.3c-0.4,0.2-0.7,0.5-0.9,0.9
			c-0.4,0.6-0.7,1.3-0.7,2c0,0.6,0.2,1.1,0.5,1.7C310.5,250,311.4,250.7,312.1,250.9L312.1,250.9z"/>
	</g>
</g>
<g id="pointanimation1">
	<g>
		<linearGradient id="SVGID_30_" gradientUnits="userSpaceOnUse" x1="153.9393" y1="41.6874" x2="157.0607" y2="41.6874">
			<stop  offset="2.347506e-07" style="stop-color:#B8E4E7"/>
			<stop  offset="1" style="stop-color:#F5DDE8"/>
		</linearGradient>
		<path style="fill:url(#SVGID_30_);" d="M156.8,45.1c0.2-0.1,0.4-0.3,0.6-0.4c0.8-0.5,1.5-1.3,1.7-2.2c0.2-0.9,0.2-2-0.4-2.8
			c-0.5-0.7-0.6-0.8-1.3-1.3c-0.7-0.5-2-0.6-2.8-0.4c-1,0.3-1.6,0.9-2.2,1.7c-0.1,0.2-0.3,0.4-0.4,0.6c-0.4,0.6-0.5,1.5-0.4,2.3
			c0.1,0.7,0.4,1.5,1,2c0.5,0.4,1,0.7,1.6,0.9C154.8,45.7,156.1,45.5,156.8,45.1L156.8,45.1z"/>
	</g>
</g>
<g>
	<g>
		<linearGradient id="SVGID_31_" gradientUnits="userSpaceOnUse" x1="252.5977" y1="500.3333" x2="260.0689" y2="500.3333">
			<stop  offset="4.695012e-07" style="stop-color:#F559AA"/>
			<stop  offset="1" style="stop-color:#F6DA61"/>
		</linearGradient>
		<path style="fill:url(#SVGID_31_);" d="M256.3,504.2c5,0,5-7.7,0-7.7C251.4,496.5,251.3,504.2,256.3,504.2L256.3,504.2z"/>
	</g>
</g>
<g>
	<g>
		<linearGradient id="SVGID_32_" gradientUnits="userSpaceOnUse" x1="35.5" y1="347" x2="38.5" y2="347">
			<stop  offset="4.695012e-07" style="stop-color:#F559AA"/>
			<stop  offset="1" style="stop-color:#F6DA61"/>
		</linearGradient>
		<path style="fill:url(#SVGID_32_);" d="M37,350.1c1.6,0,3.1-1.4,3.1-3.1c-0.1-1.7-1.3-3.1-3.1-3.1c-1.6,0-3.1,1.4-3.1,3.1
			C34,348.7,35.3,350.1,37,350.1L37,350.1z"/>
	</g>
</g>
</svg>
