<?xml version="1.0" encoding="utf-8"?>
<!-- Generator: Adobe Illustrator 22.1.0, SVG Export Plug-In . SVG Version: 6.00 Build 0)  -->
<svg version="1.1" id="Calque_1" xmlns="http://www.w3.org/2000/svg" xmlns:xlink="http://www.w3.org/1999/xlink" x="0px" y="0px"
	 viewBox="0 0 500 350" style="enable-background:new 0 0 500 350;" xml:space="preserve">
<g>
	<g>
		<path style="fill:#FFFFFF;" d="M338.273,178.835c-0.025,0.219-0.016,0.278,0.048,0.488c0.108,0.353,0.608,0.353,0.717,0
			c0.064-0.209,0.073-0.269,0.048-0.488C339.025,178.314,338.333,178.313,338.273,178.835L338.273,178.835z"/>
	</g>
</g>
<g>
	<g>
		<path style="fill:#FFFFFF;" d="M371.28,159.206c-0.002-0.003-0.006,0.268-0.001,0.349c0.029,0.395,0.196,0.623,0.436,0.92
			c-0.097-0.365-0.193-0.73-0.29-1.096c-0.005,0.028-0.009,0.056-0.014,0.085c0.522-0.296,1.044-0.593,1.567-0.889
			c-0.507-0.159-1.084-0.15-1.615-0.184c-0.517-0.033-1.063,0.19-1.215,0.742c-0.163,0.592,0.247,1.08,0.754,1.293
			c0.472,0.198,0.894,0.495,1.398,0.605c0.802,0.175,1.612-0.372,1.612-1.228c0-0.857-0.809-1.394-1.612-1.228
			c-0.03,0.006-0.059,0.012-0.089,0.018c0.289,0.038,0.578,0.076,0.868,0.114c-0.237-0.178-0.462-0.249-0.761-0.256
			c-0.064-0.001-0.128,0.001-0.192,0.004c-0.264,0.033-0.302,0.039-0.114,0.019C371.553,158.219,370.999,158.735,371.28,159.206
			L371.28,159.206z"/>
	</g>
</g>
<g>
	<g>
		<path style="fill:#FFFFFF;" d="M361.427,64.397c0.252,0.282,0.582,0.381,0.918,0.521c0.45,0.188,0.843,0.12,1.28,0.12
			c-0.144-0.039-0.289-0.078-0.433-0.117c0.803,0.461,1.736-0.09,1.961-0.937c0.186-0.699-0.205-1.363-0.804-1.706
			c-0.946-0.542-2.678-0.375-3.233,0.676c-0.381,0.721,0.509,1.396,1.113,0.859c-0.097,0.086,0.033-0.008,0.111-0.018
			c-0.056,0.007,0.223,0.002,0.271,0.005c0.148,0.01,0.4,0.083,0.618,0.173c0.068,0.029,0.062,0.025-0.018-0.01
			c0.053,0.025,0.104,0.054,0.153,0.087c-0.146-0.221-0.3-0.251-0.2-0.612c0.195-0.279,0.23-0.352,0.106-0.219
			c0.146-0.12,0.101-0.087-0.135,0.099c-0.182,0.175-0.295,0.391-0.338,0.637c0.074-0.126,0.147-0.252,0.221-0.379
			c0.185-0.158,0-0.018-0.101,0.008c-0.134,0.034-0.271,0.065-0.404,0.096c-0.118,0.028-0.198,0.089-0.341-0.026
			C361.651,63.232,360.966,63.881,361.427,64.397L361.427,64.397z"/>
	</g>
</g>
<g>
	<g>
		<path style="fill:#FFFFFF;" d="M190.054,172.164c-0.5-0.282-1.319-0.531-1.692,0.107c-0.379,0.649,0.235,1.233,0.715,1.565
			C190.095,174.541,191.15,172.782,190.054,172.164L190.054,172.164z"/>
	</g>
</g>
<g>
	<g>
		<path style="fill:#FFFFFF;" d="M128.056,188.837c1.357,0,1.359-2.109,0-2.109C126.699,186.729,126.697,188.837,128.056,188.837
			L128.056,188.837z"/>
	</g>
</g>
<g>
	<g>
		<linearGradient id="SVGID_1_" gradientUnits="userSpaceOnUse" x1="372.2299" y1="315.773" x2="373.4725" y2="315.773">
			<stop  offset="2.347506e-07" style="stop-color:#B8E4E7"/>
			<stop  offset="1" style="stop-color:#F5DDE8"/>
		</linearGradient>
		<path style="fill:url(#SVGID_1_);" d="M373.275,315.056c-0.43,0.071-0.881,0.116-1.241,0.381c-0.248,0.182-0.248,0.489,0,0.672
			c0.361,0.265,0.812,0.31,1.241,0.381C374.473,316.688,374.481,314.857,373.275,315.056L373.275,315.056z"/>
	</g>
</g>
<g>
	<g>
		<linearGradient id="SVGID_2_" gradientUnits="userSpaceOnUse" x1="413.0406" y1="308.448" x2="414.0533" y2="308.448">
			<stop  offset="2.347506e-07" style="stop-color:#B8E4E7"/>
			<stop  offset="1" style="stop-color:#F5DDE8"/>
		</linearGradient>
		<path style="fill:url(#SVGID_2_);" d="M413.234,307.314c-0.101,0.069-0.202,0.139-0.303,0.208
			c-0.543,0.372-0.788,1.072-0.438,1.67c0.337,0.576,1.095,0.765,1.67,0.438c0.106-0.06,0.212-0.121,0.318-0.181
			C415.875,308.656,414.539,306.418,413.234,307.314L413.234,307.314z"/>
	</g>
</g>
<g>
	<g>
		<linearGradient id="SVGID_3_" gradientUnits="userSpaceOnUse" x1="438.3412" y1="288.8618" x2="439.0786" y2="288.8618">
			<stop  offset="2.347506e-07" style="stop-color:#B8E4E7"/>
			<stop  offset="1" style="stop-color:#F5DDE8"/>
		</linearGradient>
		<path style="fill:url(#SVGID_3_);" d="M439.943,288.59c-0.011-0.062-0.023-0.123-0.034-0.185c-0.217-1.187-2.182-1.188-2.399,0
			c-0.011,0.062-0.023,0.123-0.034,0.185c-0.147,0.807,0.354,1.619,1.233,1.619C439.583,290.209,440.091,289.398,439.943,288.59
			L439.943,288.59z"/>
	</g>
</g>
<g>
	<g>
		<linearGradient id="SVGID_4_" gradientUnits="userSpaceOnUse" x1="72.0206" y1="119.0667" x2="73.0412" y2="119.0667">
			<stop  offset="2.347506e-07" style="stop-color:#B8E4E7"/>
			<stop  offset="1" style="stop-color:#F5DDE8"/>
		</linearGradient>
		<path style="fill:url(#SVGID_4_);" d="M71.711,120.505c0.058,0.037,0.116,0.073,0.175,0.11c0.516,0.326,1.245,0.249,1.708-0.12
			c0.514-0.409,0.663-0.982,0.551-1.617c-0.101-0.575-0.546-1.047-1.003-1.366c-0.518-0.362-1.302-0.194-1.729,0.223
			c-0.031,0.031-0.063,0.062-0.096,0.092c-0.284,0.263-0.39,0.709-0.284,1.076c-0.136-0.476,0.094,0.453,0.158,0.561
			c0.081,0.136,0.18,0.255,0.297,0.358c0.062-1.346-0.015-1.722-0.23-1.128C71.024,119.274,71.133,120.14,71.711,120.505
			L71.711,120.505z"/>
	</g>
</g>
<g>
	<g>
		<linearGradient id="SVGID_5_" gradientUnits="userSpaceOnUse" x1="295.1876" y1="17" x2="295.8089" y2="17">
			<stop  offset="4.695012e-07" style="stop-color:#F559AA"/>
			<stop  offset="1" style="stop-color:#F6DA61"/>
		</linearGradient>
		<path style="fill:url(#SVGID_5_);" d="M295.188,18.028c0.156,0.013,0.309,0.025,0.466,0.026c1.357,0.011,1.36-2.12,0-2.109
			c-0.157,0.001-0.31,0.014-0.466,0.026C293.866,16.078,293.864,17.922,295.188,18.028L295.188,18.028z"/>
	</g>
</g>
<g>
	<g>
		<linearGradient id="SVGID_6_" gradientUnits="userSpaceOnUse" x1="411.6249" y1="120.4084" x2="412.3624" y2="120.4084">
			<stop  offset="4.695012e-07" style="stop-color:#F559AA"/>
			<stop  offset="1" style="stop-color:#F6DA61"/>
		</linearGradient>
		<path style="fill:url(#SVGID_6_);" d="M413.069,120.185c-0.009-0.062-0.019-0.124-0.028-0.187c-0.156-1.036-1.937-1.037-2.094,0
			c-0.009,0.062-0.019,0.125-0.028,0.187c-0.106,0.704,0.293,1.411,1.075,1.411C412.769,121.596,413.175,120.889,413.069,120.185
			L413.069,120.185z"/>
	</g>
</g>
<g>
	<g>
		<linearGradient id="SVGID_7_" gradientUnits="userSpaceOnUse" x1="418.011" y1="181.1873" x2="419.0237" y2="181.1873">
			<stop  offset="4.695012e-07" style="stop-color:#F559AA"/>
			<stop  offset="1" style="stop-color:#F6DA61"/>
		</linearGradient>
		<path style="fill:url(#SVGID_7_);" d="M417.445,181.551c0.009,0.034,0.018,0.068,0.027,0.102c0-0.192,0-0.385,0-0.577
			c0.004,0.02,0.008,0.04,0.012,0.06c-0.252,0.587,0.038,1.227,0.724,1.261c0.007,0.004,0.015,0.009,0.022,0.013
			c-0.16-0.093-0.319-0.186-0.479-0.279c0.421,0.351,0.899,0.576,1.459,0.422c0.747-0.206,1.207-1.018,1.002-1.765
			C419.724,179.015,416.972,179.751,417.445,181.551L417.445,181.551z"/>
	</g>
</g>
<g>
	<g>
		<linearGradient id="SVGID_8_" gradientUnits="userSpaceOnUse" x1="255.0551" y1="312.2676" x2="255.7926" y2="312.2676">
			<stop  offset="4.695012e-07" style="stop-color:#F559AA"/>
			<stop  offset="1" style="stop-color:#F6DA61"/>
		</linearGradient>
		<path style="fill:url(#SVGID_8_);" d="M254.084,311.688c0.003,0.389,0.006,0.778,0.009,1.167c0.013,1.713,2.649,1.715,2.662,0
			c0.003-0.389,0.006-0.778,0.009-1.167C256.776,309.964,254.072,309.962,254.084,311.688L254.084,311.688z"/>
	</g>
</g>
<g>
	<g>
		<linearGradient id="SVGID_9_" gradientUnits="userSpaceOnUse" x1="67.1116" y1="162.8483" x2="67.91" y2="162.8483">
			<stop  offset="4.695012e-07" style="stop-color:#F559AA"/>
			<stop  offset="1" style="stop-color:#F6DA61"/>
		</linearGradient>
		<path style="fill:url(#SVGID_9_);" d="M66.315,163.032c0.012-0.487,0.001-0.575-0.032-0.263c-0.038,0.169-0.03,0.337,0.023,0.506
			c0.043,0.101,0.085,0.202,0.128,0.303c0.115,0.237,0.086,0.038-0.085-0.597c-0.103,0.281,0.025,0.6,0.213,0.807
			c0.336,0.37,0.824,0.497,1.304,0.373c0.537-0.138,0.932-0.673,0.931-1.223c-0.001-0.308-0.074-0.591-0.233-0.854
			C67.834,160.874,66.002,161.676,66.315,163.032L66.315,163.032z"/>
	</g>
</g>
<g>
	<g>
		<linearGradient id="SVGID_10_" gradientUnits="userSpaceOnUse" x1="41.8214" y1="18.2784" x2="44.2602" y2="18.2784">
			<stop  offset="4.695012e-07" style="stop-color:#F559AA"/>
			<stop  offset="1" style="stop-color:#F6DA61"/>
		</linearGradient>
		<path style="fill:url(#SVGID_10_);" d="M43.021,16.654c-0.376,0.342-0.64,0.76-0.981,1.133c-0.38,0.416-0.715,0.775-0.901,1.319
			c-0.253,0.741,0.514,1.314,1.18,1.18c0.519-0.104,0.915-0.427,1.339-0.723c0.456-0.318,0.923-0.553,1.355-0.916
			c0.582-0.49,0.506-1.487,0-1.992C44.454,16.094,43.585,16.14,43.021,16.654L43.021,16.654z"/>
	</g>
</g>
<g id="pointanimation2_1_">
	<g>
		<linearGradient id="SVGID_11_" gradientUnits="userSpaceOnUse" x1="422.1224" y1="53.7403" x2="424.5273" y2="53.7403">
			<stop  offset="4.695012e-07" style="stop-color:#F559AA"/>
			<stop  offset="1" style="stop-color:#F6DA61"/>
		</linearGradient>
		<path style="fill:url(#SVGID_11_);" d="M423.242,52.391c-0.071,0.054-0.144,0.097-0.222,0.141
			c-0.059,0.026-0.117,0.053-0.175,0.081c-0.11,0.058-0.115,0.062-0.013,0.013c0.105-0.042,0.096-0.046-0.026-0.011
			c0.177-0.019,0.214-0.026,0.111-0.021c-0.088-0.003,0.266,0.058-0.053-0.007c-0.559-0.113-1.139,0.075-1.437,0.585
			c-0.277,0.473-0.214,1.162,0.199,1.542c0.789,0.727,2.203,0.775,3.089,0.195c0.658-0.431,0.935-1.291,0.523-1.995
			C424.876,52.297,423.873,51.911,423.242,52.391L423.242,52.391z"/>
	</g>
</g>
<g>
	<g>
		<linearGradient id="SVGID_12_" gradientUnits="userSpaceOnUse" x1="71.2816" y1="329" x2="74.2368" y2="329">
			<stop  offset="4.695012e-07" style="stop-color:#F559AA"/>
			<stop  offset="1" style="stop-color:#F6DA61"/>
		</linearGradient>
		<path style="fill:url(#SVGID_12_);" d="M72.759,330.53c1.968,0,1.972-3.059,0-3.059C70.791,327.47,70.787,330.53,72.759,330.53
			L72.759,330.53z"/>
	</g>
</g>
<g id="point3_1_">
	<g>
		<linearGradient id="SVGID_13_" gradientUnits="userSpaceOnUse" x1="115.1446" y1="303.7911" x2="117.3569" y2="303.7911">
			<stop  offset="4.695012e-07" style="stop-color:#F559AA"/>
			<stop  offset="1" style="stop-color:#F6DA61"/>
		</linearGradient>
		<path style="fill:url(#SVGID_13_);" d="M113.049,305.584c0.067,0.09,0.134,0.181,0.201,0.271c0.754,1.015,1.67,1.721,3,1.721
			s2.246-0.706,3-1.721c0.067-0.09,0.134-0.181,0.201-0.271c0.766-1.032,0.613-2.694,0-3.742c-0.66-1.128-1.894-1.836-3.201-1.836
			s-2.541,0.709-3.201,1.836C112.436,302.89,112.283,304.553,113.049,305.584L113.049,305.584z"/>
	</g>
</g>
<g id="point2_1_">
	<g>
		<linearGradient id="SVGID_14_" gradientUnits="userSpaceOnUse" x1="311.3416" y1="145.7653" x2="311.963" y2="145.7653">
			<stop  offset="2.347506e-07" style="stop-color:#B8E4E7"/>
			<stop  offset="1" style="stop-color:#F5DDE8"/>
		</linearGradient>
		<path style="fill:url(#SVGID_14_);" d="M311.342,148.205c0.207,0.026,0.414,0.052,0.621,0.078
			c0.593,0.074,1.376-0.335,1.778-0.737c0.436-0.436,0.765-1.152,0.737-1.778c-0.055-1.222-1.117-2.69-2.515-2.515
			c-0.207,0.026-0.414,0.052-0.621,0.078c-0.671,0.084-1.226,0.216-1.723,0.714c-0.423,0.423-0.741,1.116-0.714,1.723
			c0.028,0.63,0.235,1.284,0.714,1.723C310.127,147.958,310.662,148.12,311.342,148.205L311.342,148.205z"/>
	</g>
</g>
<g id="pointanimation1_1_">
	<g>
		<linearGradient id="SVGID_15_" gradientUnits="userSpaceOnUse" x1="163.5045" y1="25.5848" x2="165.6105" y2="25.5848">
			<stop  offset="2.347506e-07" style="stop-color:#B8E4E7"/>
			<stop  offset="1" style="stop-color:#F5DDE8"/>
		</linearGradient>
		<path style="fill:url(#SVGID_15_);" d="M164.788,28.278c0.164-0.067,0.327-0.135,0.491-0.202c0.873-0.36,1.667-0.899,1.894-1.894
			c0.162-0.712,0.103-1.447-0.273-2.089c-0.909-1.553-2.964-1.703-4.258-0.549c-0.134,0.119-0.267,0.238-0.401,0.357
			c-0.829,0.739-1.009,2.243-0.409,3.173c0.244,0.379,0.561,0.695,0.939,0.939C163.263,28.332,164.228,28.509,164.788,28.278
			L164.788,28.278z"/>
	</g>
</g>
<g>
	<g>
		<linearGradient id="SVGID_16_" gradientUnits="userSpaceOnUse" x1="255.7756" y1="293.2095" x2="261.2853" y2="293.2095">
			<stop  offset="4.695012e-07" style="stop-color:#F559AA"/>
			<stop  offset="1" style="stop-color:#F6DA61"/>
		</linearGradient>
		<path style="fill:url(#SVGID_16_);" d="M258.53,296.061c3.67,0,3.676-5.704,0-5.704
			C254.86,290.358,254.854,296.061,258.53,296.061L258.53,296.061z"/>
	</g>
</g>
<g>
	<g>
		<linearGradient id="SVGID_17_" gradientUnits="userSpaceOnUse" x1="53.0137" y1="203.7332" x2="55.2261" y2="203.7332">
			<stop  offset="4.695012e-07" style="stop-color:#F559AA"/>
			<stop  offset="1" style="stop-color:#F6DA61"/>
		</linearGradient>
		<path style="fill:url(#SVGID_17_);" d="M54.12,205.989c1.18,0,2.31-1.037,2.256-2.256c-0.055-1.222-0.991-2.256-2.256-2.256
			c-1.18,0-2.31,1.037-2.256,2.256C51.919,204.955,52.855,205.989,54.12,205.989L54.12,205.989z"/>
	</g>
</g>
</svg>
