<?xml version="1.0" encoding="utf-8"?>
<!-- Generator: Adobe Illustrator 22.1.0, SVG Export Plug-In . SVG Version: 6.00 Build 0)  -->
<svg version="1.1" id="Calque_1" xmlns="http://www.w3.org/2000/svg" xmlns:xlink="http://www.w3.org/1999/xlink" x="0px" y="0px"
	 viewBox="0 0 500 600" style="enable-background:new 0 0 500 600;" xml:space="preserve">
<linearGradient id="SVGID_1_" gradientUnits="userSpaceOnUse" x1="-1" y1="301" x2="499" y2="301">
	<stop  offset="0" style="stop-color:#0C1F28"/>
	<stop  offset="1" style="stop-color:#102633"/>
</linearGradient>
<rect x="-1" y="0" style="display:none;fill:url(#SVGID_1_);" width="500" height="602"/>
<g>
	<g>
		<path style="fill:#FFFFFF;" d="M341.783,304.333c-0.032,0.347-0.088,0.616,0.116,0.921c0.216,0.324,0.654,0.324,0.87,0
			c0.202-0.303,0.148-0.573,0.116-0.921C342.819,303.626,341.847,303.624,341.783,304.333L341.783,304.333z"/>
	</g>
</g>
<g>
	<g>
		<path style="fill:#FFFFFF;" d="M377.11,270.424c0.018,0.06,0.036,0.12,0.053,0.18c0.026-0.201,0.053-0.402,0.079-0.603
			c-0.339,0.656-0.464,1.085-0.192,1.801c0.134-0.508,0.268-1.015,0.403-1.523c-0.011,0.009-0.022,0.017-0.032,0.026
			c-0.604,0.477-0.635,1.518-0.276,2.136c0.033,0.057,0.066,0.113,0.099,0.17c0.808-0.808,1.617-1.617,2.425-2.425
			c-0.339-0.155-0.683-0.343-1.071-0.322c-0.059-0.001-0.117-0.003-0.176-0.004c0.1,0.036,0.092,0.039-0.023,0.008
			c-0.408-0.054-0.794-0.175-1.209-0.211c-0.43-0.037-1.025,0.281-1.199,0.687c-0.047,0.11-0.094,0.221-0.14,0.332
			c-0.174,0.418,0.025,1.062,0.357,1.35c0.273,0.238,0.652,0.466,0.891,0.64c0.001,0,0.205,0.2,0.242,0.232
			c0.292,0.253,0.603,0.386,0.962,0.527c1.401,0.549,2.877-1.387,2.002-2.604c-0.418-0.58-0.784-0.832-1.446-1.07
			c0.224,0.131,0.448,0.261,0.672,0.392c-0.489-0.486-0.952-0.567-1.612-0.53c0.184,0.076,0.369,0.153,0.553,0.229
			c-0.049-0.042-0.098-0.084-0.146-0.126C377.803,269.27,376.891,269.685,377.11,270.424L377.11,270.424z"/>
	</g>
</g>
<g>
	<g>
		<path style="fill:#FFFFFF;" d="M366.525,107.945c0.258,0.489,0.735,0.762,1.163,0.986c0.613,0.322,1.223,0.102,1.843-0.05
			c-0.205,0-0.41,0-0.615,0c0.049,0.013,0.098,0.027,0.146,0.04c0.649,0.177,1.234-0.131,1.6-0.651
			c0.932-1.324,0.199-3.283-1.348-3.713c-1.273-0.354-2.82,0.173-3.176,1.549c-0.119,0.46,0.113,0.955,0.556,1.134
			c0.478,0.192,0.903,0.001,1.2-0.393c-0.025,0.033-0.062,0.053-0.085,0.084c0.135-0.177-0.052,0.032,0.04-0.027
			c0.024-0.016,0.229-0.043,0.082-0.025c-0.146,0.018,0.061,0.002,0.09,0.005c0.139,0.018-0.193-0.08,0.023,0.002
			c0.062,0.024,0.13,0.038,0.193,0.059c-0.26-0.087,0.077,0.073,0.171,0.138c-0.012-0.008-0.071-0.059-0.082-0.084
			c0.07,0.172-0.112-0.33-0.01-0.02c-0.032-0.098-0.006-0.244-0.025-0.063c0.013-0.126,0.033-0.208,0.088-0.323
			c-0.079,0.164,0.033,0.029,0.058-0.041c-0.138,0.128-0.236,0.28-0.293,0.456c-0.064,0.111-0.096,0.23-0.097,0.358
			c-0.033,0.243,0.002,0.469,0.06,0.706c0.039-0.297,0.078-0.595,0.117-0.892c-0.03,0.054-0.064,0.106-0.102,0.155
			c0.129-0.129,0.258-0.258,0.387-0.387c-0.198,0.144-0.201,0.146-0.357,0.193c-0.141,0.042-0.234,0.073-0.384,0.133
			c-0.165,0.066,0.07,0.005-0.122,0.045c0.142,0,0.283,0,0.425,0c-0.213-0.033-0.283-0.065-0.422-0.241
			C367.126,106.418,366.163,107.259,366.525,107.945L366.525,107.945z"/>
	</g>
</g>
<g>
	<g>
		<path style="fill:#FFFFFF;" d="M183.261,293.405c-0.452-0.41-0.826-0.685-1.461-0.708c-0.58-0.021-1.124,0.522-1.103,1.103
			c0.023,0.636,0.298,1.01,0.708,1.461C182.543,296.516,184.516,294.543,183.261,293.405L183.261,293.405z"/>
	</g>
</g>
<g>
	<g>
		<path style="fill:#FFFFFF;" d="M116.333,321.096c1.84,0,1.843-2.859,0-2.859C114.493,318.237,114.49,321.096,116.333,321.096
			L116.333,321.096z"/>
	</g>
</g>
<g>
	<g>
		<linearGradient id="SVGID_2_" gradientUnits="userSpaceOnUse" x1="378.3333" y1="539.0001" x2="379.6667" y2="539.0001">
			<stop  offset="2.347506e-07" style="stop-color:#B8E4E7"/>
			<stop  offset="1" style="stop-color:#F5DDE8"/>
		</linearGradient>
		<path style="fill:url(#SVGID_2_);" d="M379.399,538.028c-0.506,0.107-1.079,0.19-1.438,0.599c-0.197,0.224-0.199,0.52,0,0.746
			c0.361,0.41,0.931,0.491,1.438,0.599c0.635,0.135,1.276-0.292,1.276-0.972C380.674,538.324,380.034,537.893,379.399,538.028
			L379.399,538.028z"/>
	</g>
</g>
<g>
	<g>
		<linearGradient id="SVGID_3_" gradientUnits="userSpaceOnUse" x1="421.9798" y1="526.5005" x2="423.3535" y2="526.5005">
			<stop  offset="2.347506e-07" style="stop-color:#B8E4E7"/>
			<stop  offset="1" style="stop-color:#F5DDE8"/>
		</linearGradient>
		<path style="fill:url(#SVGID_3_);" d="M421.79,525.124c-0.338,0.369-0.573,0.708-0.748,1.18c-0.411,1.114,0.873,2.398,1.987,1.987
			c0.478-0.177,0.813-0.411,1.18-0.748c0.662-0.606,0.66-1.813,0-2.42C423.552,524.519,422.435,524.418,421.79,525.124
			L421.79,525.124z"/>
	</g>
</g>
<g>
	<g>
		<linearGradient id="SVGID_4_" gradientUnits="userSpaceOnUse" x1="449.1667" y1="492.7875" x2="450.1667" y2="492.7875">
			<stop  offset="2.347506e-07" style="stop-color:#B8E4E7"/>
			<stop  offset="1" style="stop-color:#F5DDE8"/>
		</linearGradient>
		<path style="fill:url(#SVGID_4_);" d="M451.373,492.53c-0.023-0.16-0.046-0.32-0.073-0.48c-0.121-0.697-0.946-1.274-1.633-1.243
			c-0.695,0.031-1.503,0.497-1.633,1.243c-0.028,0.16-0.051,0.319-0.073,0.48c-0.089,0.625-0.048,1.26,0.455,1.722
			c0.346,0.318,0.772,0.518,1.251,0.518c0.454,0,0.93-0.197,1.251-0.518C451.407,493.762,451.466,493.177,451.373,492.53
			L451.373,492.53z"/>
	</g>
</g>
<g>
	<g>
		<linearGradient id="SVGID_5_" gradientUnits="userSpaceOnUse" x1="56.1283" y1="201.9164" x2="57.407" y2="201.9164">
			<stop  offset="2.347506e-07" style="stop-color:#B8E4E7"/>
			<stop  offset="1" style="stop-color:#F5DDE8"/>
		</linearGradient>
		<path style="fill:url(#SVGID_5_);" d="M56.678,204.22c0.033-0.006,0.066-0.011,0.099-0.017c-0.318-0.042-0.635-0.083-0.953-0.125
			c0.146,0.107,0.328,0.176,0.499,0.236c0.515,0.181,1.328,0.001,1.674-0.442c0.019-0.025,0.038-0.049,0.058-0.074
			c-0.256,0.149-0.513,0.299-0.769,0.448c0.057-0.026,0.116-0.044,0.177-0.054c1.102-0.2,1.761-1.567,1.463-2.577
			c-0.044-0.15-0.105-0.287-0.166-0.432c-0.327-0.774,0.137,0.326-0.013-0.04c-0.183-0.448-0.368-0.742-0.669-1.124
			c-0.521-0.66-1.71-0.728-2.387-0.308c-0.168,0.104,0.771-0.325,0.126-0.053c-0.11,0.047-0.204,0.079-0.301,0.139
			c-0.599,0.373-0.863,1.053-0.705,1.734c-0.026-0.34-0.039-0.427-0.039-0.261c0.081-0.299,0.162-0.599,0.243-0.898
			c0.093-0.118,0.185-0.235,0.278-0.353c-0.569,0.679-0.777,1.584-0.308,2.387c0.151,0.258-0.107-0.5-0.037-0.006
			c0-0.356,0-0.712,0-1.067c-0.013,0.099-0.033,0.186-0.062,0.281c-0.35,1.144,0.422,2.202,1.463,2.577
			c0.006,0.002,0.012,0.004,0.018,0.006c-0.294-0.171-0.587-0.342-0.881-0.513c0.035,0.037,0.07,0.075,0.104,0.112
			c-0.149-0.565-0.299-1.13-0.448-1.696c-0.006,0.032-0.013,0.064-0.019,0.096c-0.118,0.582-0.033,1.256,0.442,1.674
			c-0.061-0.079-0.122-0.158-0.183-0.237c0.064-0.499,0.129-0.999,0.193-1.498c-0.024,0.022-0.047,0.044-0.071,0.066
			c-0.388,0.364-0.453,1.012-0.189,1.463C55.602,204.156,56.145,204.312,56.678,204.22L56.678,204.22z"/>
	</g>
</g>
<g>
	<g>
		<linearGradient id="SVGID_6_" gradientUnits="userSpaceOnUse" x1="295.6667" y1="27" x2="296.3333" y2="27">
			<stop  offset="4.695012e-07" style="stop-color:#F559AA"/>
			<stop  offset="1" style="stop-color:#F6DA61"/>
		</linearGradient>
		<path style="fill:url(#SVGID_6_);" d="M295.667,28.395c0.169,0.017,0.331,0.034,0.5,0.036c0.773,0.008,1.43-0.663,1.43-1.43
			c0-0.769-0.654-1.438-1.43-1.43c-0.169,0.002-0.331,0.018-0.5,0.036c-0.749,0.076-1.395,0.586-1.395,1.395
			C294.272,27.818,294.914,28.318,295.667,28.395L295.667,28.395z"/>
	</g>
</g>
<g>
	<g>
		<linearGradient id="SVGID_7_" gradientUnits="userSpaceOnUse" x1="420.5" y1="204.146" x2="421.5" y2="204.146">
			<stop  offset="4.695012e-07" style="stop-color:#F559AA"/>
			<stop  offset="1" style="stop-color:#F6DA61"/>
		</linearGradient>
		<path style="fill:url(#SVGID_7_);" d="M422.492,203.922c-0.031-0.158-0.061-0.316-0.095-0.474c-0.294-1.381-2.499-1.382-2.794,0
			c-0.034,0.158-0.064,0.316-0.095,0.474c-0.188,0.976,0.435,1.958,1.492,1.958C422.049,205.88,422.68,204.899,422.492,203.922
			L422.492,203.922z"/>
	</g>
</g>
<g>
	<g>
		<linearGradient id="SVGID_8_" gradientUnits="userSpaceOnUse" x1="427.3131" y1="308.3222" x2="428.6869" y2="308.3222">
			<stop  offset="4.695012e-07" style="stop-color:#F559AA"/>
			<stop  offset="1" style="stop-color:#F6DA61"/>
		</linearGradient>
		<path style="fill:url(#SVGID_8_);" d="M426.623,309.333c0.032,0.055,0.065,0.11,0.097,0.165c-0.042-0.321-0.084-0.642-0.126-0.964
			c-0.008,0.055-0.016,0.109-0.023,0.164c-0.131,0.915,0.484,1.529,1.398,1.398c0.055-0.008,0.109-0.016,0.164-0.023
			c-0.321-0.042-0.643-0.084-0.964-0.126c0.798,0.468,1.89,0.522,2.565-0.213c0.673-0.733,0.776-1.797,0.155-2.6
			c-0.576-0.746-1.724-1.046-2.555-0.51C426.433,307.204,426.062,308.376,426.623,309.333L426.623,309.333z"/>
	</g>
</g>
<g>
	<g>
		<linearGradient id="SVGID_9_" gradientUnits="userSpaceOnUse" x1="252.5" y1="532.9941" x2="253.5" y2="532.9941">
			<stop  offset="4.695012e-07" style="stop-color:#F559AA"/>
			<stop  offset="1" style="stop-color:#F6DA61"/>
		</linearGradient>
		<path style="fill:url(#SVGID_9_);" d="M251.148,532c0.004,0.667,0.008,1.333,0.012,2c0.006,0.962,0.842,1.885,1.84,1.84
			c1.002-0.045,1.834-0.808,1.84-1.84c0.004-0.667,0.008-1.333,0.012-2c0.006-0.969-0.856-1.896-1.852-1.852
			C252.002,530.193,251.142,530.962,251.148,532L251.148,532z"/>
	</g>
</g>
<g>
	<g>
		<linearGradient id="SVGID_10_" gradientUnits="userSpaceOnUse" x1="50.9005" y1="276.9048" x2="51.9012" y2="276.9048">
			<stop  offset="4.695012e-07" style="stop-color:#F559AA"/>
			<stop  offset="1" style="stop-color:#F6DA61"/>
		</linearGradient>
		<path style="fill:url(#SVGID_10_);" d="M49.662,276.691c0.064,0.505,0.103-0.559,0.012,0.121c-0.06,0.449,0.056,0.772,0.235,1.18
			c0.452,1.026,1.968,1.044,2.672,0.344c0.727-0.722,0.635-1.654,0.242-2.502c-0.3-0.648-1.255-0.994-1.916-0.78
			C50.258,275.265,49.567,275.941,49.662,276.691L49.662,276.691z"/>
	</g>
</g>
<g>
	<g>
		<linearGradient id="SVGID_11_" gradientUnits="userSpaceOnUse" x1="23.6576" y1="29.2735" x2="26.5666" y2="29.2735">
			<stop  offset="4.695012e-07" style="stop-color:#F559AA"/>
			<stop  offset="1" style="stop-color:#F6DA61"/>
		</linearGradient>
		<path style="fill:url(#SVGID_11_);" d="M24.48,27.132c-0.399,0.582-0.623,1.22-0.942,1.788c-0.391,0.696-0.762,1.301-0.775,2.126
			c-0.012,0.794,0.849,1.543,1.647,1.254c0.409-0.148,0.773-0.299,1.085-0.609c0.261-0.259,0.496-0.556,0.741-0.83
			c0.227-0.254,0.458-0.475,0.713-0.7c0.349-0.309,0.611-0.691,0.889-1.065c0.61-0.82,0.161-2.208-0.698-2.662
			C26.153,25.912,25.096,26.235,24.48,27.132L24.48,27.132z"/>
	</g>
</g>
<g id="pointanimation2">
	<g>
		<linearGradient id="SVGID_12_" gradientUnits="userSpaceOnUse" x1="431.7268" y1="89.8946" x2="434.553" y2="89.8946">
			<stop  offset="4.695012e-07" style="stop-color:#F559AA"/>
			<stop  offset="1" style="stop-color:#F6DA61"/>
		</linearGradient>
		<path style="fill:url(#SVGID_12_);" d="M432.232,88.616c-0.135,0.262,0.399-0.356,0.027-0.035
			c-0.136,0.117-0.479,0.311,0.018,0.001c0.306-0.119,0.366-0.151,0.18-0.097c0.34-0.031,0.413-0.046,0.218-0.044
			c0.206-0.006,0.398,0.041,0.576,0.143c-0.159-0.1-0.328-0.166-0.509-0.197c-1.239-0.251-2.561,0.796-2.142,2.142
			c0.345,1.108,1.435,1.668,2.543,1.615c1.078-0.051,1.996-0.567,2.566-1.496c0.552-0.899,0.225-2.255-0.722-2.755
			C434.064,87.406,432.747,87.616,432.232,88.616L432.232,88.616z"/>
	</g>
</g>
<g>
	<g>
		<linearGradient id="SVGID_13_" gradientUnits="userSpaceOnUse" x1="54.9963" y1="561.6667" x2="59.0037" y2="561.6667">
			<stop  offset="4.695012e-07" style="stop-color:#F559AA"/>
			<stop  offset="1" style="stop-color:#F6DA61"/>
		</linearGradient>
		<path style="fill:url(#SVGID_13_);" d="M57,563.741c2.669,0,2.674-4.148,0-4.148C54.331,559.592,54.326,563.741,57,563.741
			L57,563.741z"/>
	</g>
</g>
<g id="point3">
	<g>
		<linearGradient id="SVGID_14_" gradientUnits="userSpaceOnUse" x1="102.1667" y1="518.4912" x2="105.1667" y2="518.4912">
			<stop  offset="4.695012e-07" style="stop-color:#F559AA"/>
			<stop  offset="1" style="stop-color:#F6DA61"/>
		</linearGradient>
		<path style="fill:url(#SVGID_14_);" d="M99.235,520.924c0.091,0.169,0.182,0.338,0.273,0.507c1.689,3.135,6.628,3.135,8.318,0
			c0.091-0.169,0.182-0.338,0.273-0.507c0.879-1.631,0.952-3.555,0-5.181c-0.914-1.561-2.623-2.542-4.432-2.542
			c-1.809,0-3.518,0.981-4.432,2.542C98.283,517.369,98.355,519.293,99.235,520.924L99.235,520.924z"/>
	</g>
</g>
<g id="point2">
	<g>
		<linearGradient id="SVGID_15_" gradientUnits="userSpaceOnUse" x1="313" y1="247.6671" x2="313.6667" y2="247.6671">
			<stop  offset="2.347506e-07" style="stop-color:#B8E4E7"/>
			<stop  offset="1" style="stop-color:#F5DDE8"/>
		</linearGradient>
		<path style="fill:url(#SVGID_15_);" d="M312.121,250.853c0.213,0.034,0.426,0.068,0.639,0.102
			c1.197,0.191,2.438,0.081,3.318-0.877c0.612-0.667,0.999-1.487,0.999-2.411c0-0.874-0.38-1.793-0.999-2.411
			c-0.932-0.932-2.078-1.074-3.318-0.877c-0.213,0.034-0.426,0.068-0.639,0.102c-0.263,0.111-0.526,0.222-0.789,0.333
			c-0.385,0.208-0.694,0.491-0.927,0.851c-0.431,0.557-0.742,1.278-0.71,2.002c0.026,0.587,0.177,1.149,0.451,1.668
			C310.484,249.974,311.387,250.736,312.121,250.853L312.121,250.853z"/>
	</g>
</g>
<g id="pointanimation1">
	<g>
		<linearGradient id="SVGID_16_" gradientUnits="userSpaceOnUse" x1="153.9393" y1="41.6874" x2="157.0607" y2="41.6874">
			<stop  offset="2.347506e-07" style="stop-color:#B8E4E7"/>
			<stop  offset="1" style="stop-color:#F5DDE8"/>
		</linearGradient>
		<path style="fill:url(#SVGID_16_);" d="M156.792,45.066c0.188-0.131,0.376-0.261,0.563-0.392c0.762-0.53,1.474-1.251,1.689-2.197
			c0.207-0.91,0.2-2.044-0.371-2.833c-0.509-0.703-0.616-0.81-1.319-1.319c-0.699-0.506-2.032-0.63-2.833-0.371
			c-0.952,0.308-1.626,0.867-2.197,1.689c-0.131,0.188-0.261,0.376-0.392,0.563c-0.443,0.638-0.52,1.528-0.421,2.264
			c0.1,0.745,0.406,1.515,0.977,2.039c0.453,0.416,0.981,0.724,1.567,0.913C154.845,45.679,156.1,45.547,156.792,45.066
			L156.792,45.066z"/>
	</g>
</g>
<g>
	<g>
		<linearGradient id="SVGID_17_" gradientUnits="userSpaceOnUse" x1="252.5977" y1="500.3333" x2="260.0689" y2="500.3333">
			<stop  offset="4.695012e-07" style="stop-color:#F559AA"/>
			<stop  offset="1" style="stop-color:#F6DA61"/>
		</linearGradient>
		<path style="fill:url(#SVGID_17_);" d="M256.333,504.201c4.977,0,4.985-7.734,0-7.734
			C251.357,496.466,251.348,504.201,256.333,504.201L256.333,504.201z"/>
	</g>
</g>
<g>
	<g>
		<linearGradient id="SVGID_18_" gradientUnits="userSpaceOnUse" x1="35.5" y1="347" x2="38.5" y2="347">
			<stop  offset="4.695012e-07" style="stop-color:#F559AA"/>
			<stop  offset="1" style="stop-color:#F6DA61"/>
		</linearGradient>
		<path style="fill:url(#SVGID_18_);" d="M37,350.059c1.6,0,3.133-1.407,3.059-3.059c-0.074-1.657-1.344-3.059-3.059-3.059
			c-1.6,0-3.133,1.407-3.059,3.059C34.016,348.657,35.285,350.059,37,350.059L37,350.059z"/>
	</g>
</g>
</svg>
