<svg xmlns="http://www.w3.org/2000/svg" viewBox="0 0 341.95 242.12"><title>Fichier 29</title><g id="Calque_2" data-name="Calque 2"><g id="Calque_1-2" data-name="Calque 1"><path d="M171.88.12H334.71c7.84,0,7.51,0,7,7.53-1.23,19.42-6.26,38-13.18,56.12a222.59,222.59,0,0,1-41.34,68.41c-26.67,30.3-59.62,52.3-96.5,69.07-31.65,14.38-65.07,23.61-99.35,30.17-22.42,4.28-45.06,6.92-67.72,9.43-6,.67-12.06.64-18.07,1.21-4.29.4-5.28-1.34-5.2-5.19.23-11.36.08-22.73.08-34.1,0-65.35.08-130.7-.14-196C.3,1.22-1.57,0,4,0,58.78.2,117.05.12,171.88.12Z" style="fill:#fff"/><path d="M164.08,12.12H309.49c7,0,6.7,0,6.27,6.59-1.1,17-5.59,33.28-11.76,49.17a194.32,194.32,0,0,1-36.93,59.93c-23.81,26.54-53.24,45.82-86.17,60.5-28.26,12.6-58.11,20.69-88.72,26.43-20,3.76-40.23,6.07-60.47,8.27-5.35.58-10.77.56-16.13,1.06-3.84.35-4.72-1.18-4.65-4.55.2-10,.07-19.91.07-29.87,0-57.25.07-114.5-.12-171.75,0-4.81,1.38-5.9,6.31-5.88C66.15,12.19,115.11,12.12,164.08,12.12Z" style="fill:#e9f0f0"/></g></g></svg>