<svg xmlns="http://www.w3.org/2000/svg" xmlns:xlink="http://www.w3.org/1999/xlink" viewBox="0 0 442.24 557.43"><defs><style>.cls-1{fill:#fff;}.cls-2{fill:url(#Dégradé_sans_nom_21);}.cls-3{fill:url(#Dégradé_sans_nom_21-2);}.cls-4{fill:url(#Dégradé_sans_nom_21-3);}.cls-5{fill:url(#Dégradé_sans_nom_21-4);}.cls-6{fill:url(#Dégradé_sans_nom_21-5);}.cls-7{fill:url(#Dégradé_sans_nom_14);}.cls-8{fill:url(#Dégradé_sans_nom_14-2);}.cls-9{fill:url(#Dégradé_sans_nom_14-3);}.cls-10{fill:url(#Dégradé_sans_nom_14-4);}.cls-11{fill:url(#Dégradé_sans_nom_14-5);}.cls-12{fill:url(#Dégradé_sans_nom_14-6);}.cls-13{fill:url(#Dégradé_sans_nom_14-7);}.cls-14{fill:url(#Dégradé_sans_nom_14-8);}.cls-15{fill:url(#Dégradé_sans_nom_14-9);}.cls-16{fill:url(#Dégradé_sans_nom_14-10);}.cls-17{fill:url(#Dégradé_sans_nom_14-11);}.cls-18{fill:url(#Dégradé_sans_nom_14-12);}.cls-19{fill:url(#Dégradé_sans_nom_14-13);}.cls-20{fill:url(#Dégradé_sans_nom_14-14);}.cls-21{fill:url(#Dégradé_sans_nom_14-15);}.cls-22{fill:url(#Dégradé_sans_nom_21-6);}.cls-23{fill:url(#Dégradé_sans_nom_21-7);}.cls-24{fill:url(#Dégradé_sans_nom_21-8);}.cls-25{fill:url(#Dégradé_sans_nom_21-9);}.cls-26{fill:url(#Dégradé_sans_nom_14-16);}.cls-27{fill:url(#Dégradé_sans_nom_14-17);}.cls-28{fill:url(#Dégradé_sans_nom_14-18);}.cls-29{fill:url(#Dégradé_sans_nom_14-19);}.cls-30{fill:url(#Dégradé_sans_nom_14-20);}.cls-31{fill:url(#Dégradé_sans_nom_14-21);}.cls-32{fill:url(#Dégradé_sans_nom_14-22);}.cls-33{fill:url(#Dégradé_sans_nom_14-23);}.cls-34{fill:url(#Dégradé_sans_nom_14-24);}.cls-35{fill:url(#Dégradé_sans_nom_21-10);}.cls-36{fill:url(#Dégradé_sans_nom_21-11);}.cls-37{fill:url(#Dégradé_sans_nom_14-25);}.cls-38{fill:url(#Dégradé_sans_nom_14-26);}</style><linearGradient id="Dégradé_sans_nom_21" x1="89.24" y1="243.43" x2="97.24" y2="243.43" gradientUnits="userSpaceOnUse"><stop offset="0" stop-color="#b8e4e7"/><stop offset="1" stop-color="#f5dde8"/></linearGradient><linearGradient id="Dégradé_sans_nom_21-2" x1="91.74" y1="234.43" x2="94.74" y2="234.43" xlink:href="#Dégradé_sans_nom_21"/><linearGradient id="Dégradé_sans_nom_21-3" x1="98.24" y1="243.43" x2="106.24" y2="243.43" xlink:href="#Dégradé_sans_nom_21"/><linearGradient id="Dégradé_sans_nom_21-4" x1="91.74" y1="252.43" x2="94.74" y2="252.43" xlink:href="#Dégradé_sans_nom_21"/><linearGradient id="Dégradé_sans_nom_21-5" x1="80.24" y1="243.43" x2="88.24" y2="243.43" xlink:href="#Dégradé_sans_nom_21"/><linearGradient id="Dégradé_sans_nom_14" x1="357.36" y1="26.93" x2="368.13" y2="26.93" gradientUnits="userSpaceOnUse"><stop offset="0" stop-color="#f559aa"/><stop offset="1" stop-color="#f6da61"/></linearGradient><linearGradient id="Dégradé_sans_nom_14-2" x1="360.72" y1="14.81" x2="364.76" y2="14.81" xlink:href="#Dégradé_sans_nom_14"/><linearGradient id="Dégradé_sans_nom_14-3" x1="369.47" y1="26.93" x2="380.24" y2="26.93" xlink:href="#Dégradé_sans_nom_14"/><linearGradient id="Dégradé_sans_nom_14-4" x1="360.72" y1="39.05" x2="364.76" y2="39.05" xlink:href="#Dégradé_sans_nom_14"/><linearGradient id="Dégradé_sans_nom_14-5" x1="345.24" y1="26.93" x2="356.01" y2="26.93" xlink:href="#Dégradé_sans_nom_14"/><linearGradient id="Dégradé_sans_nom_14-6" x1="127.36" y1="504.93" x2="138.13" y2="504.93" xlink:href="#Dégradé_sans_nom_14"/><linearGradient id="Dégradé_sans_nom_14-7" x1="130.72" y1="492.81" x2="134.76" y2="492.81" xlink:href="#Dégradé_sans_nom_14"/><linearGradient id="Dégradé_sans_nom_14-8" x1="139.47" y1="504.93" x2="150.24" y2="504.93" xlink:href="#Dégradé_sans_nom_14"/><linearGradient id="Dégradé_sans_nom_14-9" x1="130.72" y1="517.05" x2="134.76" y2="517.05" xlink:href="#Dégradé_sans_nom_14"/><linearGradient id="Dégradé_sans_nom_14-10" x1="115.24" y1="504.93" x2="126.01" y2="504.93" xlink:href="#Dégradé_sans_nom_14"/><linearGradient id="Dégradé_sans_nom_14-11" x1="226.36" y1="539.93" x2="237.13" y2="539.93" xlink:href="#Dégradé_sans_nom_14"/><linearGradient id="Dégradé_sans_nom_14-12" x1="229.72" y1="527.81" x2="233.76" y2="527.81" xlink:href="#Dégradé_sans_nom_14"/><linearGradient id="Dégradé_sans_nom_14-13" x1="238.47" y1="539.93" x2="249.24" y2="539.93" xlink:href="#Dégradé_sans_nom_14"/><linearGradient id="Dégradé_sans_nom_14-14" x1="229.72" y1="552.05" x2="233.76" y2="552.05" xlink:href="#Dégradé_sans_nom_14"/><linearGradient id="Dégradé_sans_nom_14-15" x1="214.24" y1="539.93" x2="225.01" y2="539.93" xlink:href="#Dégradé_sans_nom_14"/><linearGradient id="Dégradé_sans_nom_21-6" x1="355.57" y1="513.43" x2="356.91" y2="513.43" xlink:href="#Dégradé_sans_nom_21"/><linearGradient id="Dégradé_sans_nom_21-7" x1="399.22" y1="500.94" x2="400.59" y2="500.94" xlink:href="#Dégradé_sans_nom_21"/><linearGradient id="Dégradé_sans_nom_21-8" x1="426.41" y1="467.23" x2="427.41" y2="467.23" xlink:href="#Dégradé_sans_nom_21"/><linearGradient id="Dégradé_sans_nom_21-9" x1="33.37" y1="176.34" x2="34.65" y2="176.34" xlink:href="#Dégradé_sans_nom_21"/><linearGradient id="Dégradé_sans_nom_14-16" x1="272.91" y1="1.43" x2="273.57" y2="1.43" xlink:href="#Dégradé_sans_nom_14"/><linearGradient id="Dégradé_sans_nom_14-17" x1="397.74" y1="178.56" x2="398.74" y2="178.56" xlink:href="#Dégradé_sans_nom_14"/><linearGradient id="Dégradé_sans_nom_14-18" x1="404.55" y1="282.75" x2="405.93" y2="282.75" xlink:href="#Dégradé_sans_nom_14"/><linearGradient id="Dégradé_sans_nom_14-19" x1="229.74" y1="507.42" x2="230.74" y2="507.42" xlink:href="#Dégradé_sans_nom_14"/><linearGradient id="Dégradé_sans_nom_14-20" x1="28.14" y1="251.34" x2="29.14" y2="251.34" xlink:href="#Dégradé_sans_nom_14"/><linearGradient id="Dégradé_sans_nom_14-21" x1="0.9" y1="3.68" x2="3.81" y2="3.68" xlink:href="#Dégradé_sans_nom_14"/><linearGradient id="Dégradé_sans_nom_14-22" x1="408.97" y1="64.32" x2="411.79" y2="64.32" xlink:href="#Dégradé_sans_nom_14"/><linearGradient id="Dégradé_sans_nom_14-23" x1="32.24" y1="536.1" x2="36.24" y2="536.1" xlink:href="#Dégradé_sans_nom_14"/><linearGradient id="Dégradé_sans_nom_14-24" x1="79.41" y1="492.92" x2="82.41" y2="492.92" xlink:href="#Dégradé_sans_nom_14"/><linearGradient id="Dégradé_sans_nom_21-10" x1="290.24" y1="222.1" x2="290.91" y2="222.1" xlink:href="#Dégradé_sans_nom_21"/><linearGradient id="Dégradé_sans_nom_21-11" x1="131.18" y1="16.12" x2="134.3" y2="16.12" xlink:href="#Dégradé_sans_nom_21"/><linearGradient id="Dégradé_sans_nom_14-25" x1="229.84" y1="474.76" x2="237.31" y2="474.76" xlink:href="#Dégradé_sans_nom_14"/><linearGradient id="Dégradé_sans_nom_14-26" x1="12.74" y1="321.43" x2="15.74" y2="321.43" xlink:href="#Dégradé_sans_nom_14"/></defs><title>Fichier 35</title><g id="Calque_2" data-name="Calque 2"><g id="Calque_1-2" data-name="Calque 1"><circle class="cls-1" cx="427.74" cy="306.93" r="4.46"/><polygon class="cls-1" points="428.02 292.43 426.07 301.35 429.41 301.35 428.02 292.43"/><polygon class="cls-1" points="442.24 307.21 433.32 305.26 433.32 308.6 442.24 307.21"/><polygon class="cls-1" points="427.46 321.43 429.41 312.51 426.07 312.51 427.46 321.43"/><polygon class="cls-1" points="413.24 306.65 422.16 308.6 422.16 305.26 413.24 306.65"/><g id="étoileanimation1"><circle class="cls-2" cx="93.24" cy="243.43" r="4"/><polygon class="cls-3" points="93.49 230.43 91.74 238.43 94.74 238.43 93.49 230.43"/><polygon class="cls-4" points="106.24 243.68 98.24 241.93 98.24 244.93 106.24 243.68"/><polygon class="cls-5" points="92.99 256.43 94.74 248.43 91.74 248.43 92.99 256.43"/><polygon class="cls-6" points="80.24 243.18 88.24 244.93 88.24 241.93 80.24 243.18"/></g><g id="etoileanimation2"><circle class="cls-7" cx="362.74" cy="26.93" r="5.38"/><polygon class="cls-8" points="363.08 9.43 360.72 20.2 364.76 20.2 363.08 9.43"/><polygon class="cls-9" points="380.24 27.27 369.47 24.91 369.47 28.95 380.24 27.27"/><polygon class="cls-10" points="362.4 44.43 364.76 33.66 360.72 33.66 362.4 44.43"/><polygon class="cls-11" points="345.24 26.59 356.01 28.95 356.01 24.91 345.24 26.59"/></g><circle class="cls-12" cx="132.74" cy="504.93" r="5.38"/><polygon class="cls-13" points="133.08 487.43 130.72 498.2 134.76 498.2 133.08 487.43"/><polygon class="cls-14" points="150.24 505.27 139.47 502.91 139.47 506.95 150.24 505.27"/><polygon class="cls-15" points="132.4 522.43 134.76 511.66 130.72 511.66 132.4 522.43"/><polygon class="cls-16" points="115.24 504.59 126.01 506.95 126.01 502.91 115.24 504.59"/><circle class="cls-17" cx="231.74" cy="539.93" r="5.38"/><polygon class="cls-18" points="232.08 522.43 229.72 533.2 233.76 533.2 232.08 522.43"/><polygon class="cls-19" points="249.24 540.27 238.47 537.91 238.47 541.95 249.24 540.27"/><polygon class="cls-20" points="231.4 557.43 233.76 546.66 229.72 546.66 231.4 557.43"/><polygon class="cls-21" points="214.24 539.59 225.01 541.95 225.01 537.91 214.24 539.59"/><path class="cls-1" d="M319,278.76a1.27,1.27,0,0,0,.12.92.51.51,0,0,0,.87,0,1.27,1.27,0,0,0,.12-.92.56.56,0,0,0-1.11,0Z"/><path class="cls-1" d="M354.35,244.85l0,.18.08-.6a2.25,2.25,0,0,0-.37,1.06,2.79,2.79,0,0,0,.36,1.11l.24-1.87,0,0a1.74,1.74,0,0,0-.27,2.11l.09.17,2.4-2.39a2.22,2.22,0,0,0-1.06-.32h-.18c.1,0,.09,0,0,0-.4-.07-.78-.19-1.2-.23a1.32,1.32,0,0,0-1.2.68c-.05.12-.09.23-.14.34a1.34,1.34,0,0,0,.36,1.35c.31.26.67.44,1,.69s-.22-.19.16.16a2.68,2.68,0,0,0,.95.52,1.77,1.77,0,0,0,2-2.57l-.12-.16a1.79,1.79,0,0,0-2.38-.62h0l1.87.25a1.84,1.84,0,0,0-1.73-.69l.55.23-.14-.12a.73.73,0,0,0-1.22.7Z"/><path class="cls-1" d="M343.77,82.37a2.47,2.47,0,0,0,1.16,1,2.49,2.49,0,0,0,1.84,0h-.61l.14,0a1.45,1.45,0,0,0,1.6-.65,2.52,2.52,0,1,0-4.52-2.16,1,1,0,0,0,.56,1.13,1,1,0,0,0,1.2-.39.73.73,0,0,0-.09.08c.14-.18-.05,0,0,0s.23,0,.08,0,.06,0,.09,0-.19-.08,0,0l.2.05c-.26-.08.08.08.17.14a.6.6,0,0,1-.08-.08c.07.17-.11-.33,0,0,0-.1,0-.25,0-.06a.78.78,0,0,1,.09-.33c-.08.17,0,0,.06,0a1.08,1.08,0,0,0-.3.46.74.74,0,0,0-.09.36,1.85,1.85,0,0,0,.06.7l.11-.89a1.4,1.4,0,0,1-.1.16l.39-.39a.9.9,0,0,1-.36.19l-.38.13c-.17.07.07,0-.12,0h.42a.53.53,0,0,1-.42-.24c-.52-.66-1.49.18-1.12.86Z"/><path class="cls-1" d="M160.5,267.84a2.11,2.11,0,0,0-1.46-.71,1.11,1.11,0,0,0-1.1,1.1,2.11,2.11,0,0,0,.71,1.46c1.13,1.26,3.11-.72,1.85-1.85Z"/><path class="cls-1" d="M93.57,295.53a1.43,1.43,0,0,0,0-2.86,1.43,1.43,0,0,0,0,2.86Z"/><path class="cls-22" d="M356.64,512.46a2.49,2.49,0,0,0-1.44.6.53.53,0,0,0,0,.74,2.49,2.49,0,0,0,1.44.6,1,1,0,1,0,0-1.94Z"/><path class="cls-23" d="M399.05,499.57a3.61,3.61,0,0,0-.75,1.17,1.61,1.61,0,0,0,2,2,3.54,3.54,0,0,0,1.16-.74,1.69,1.69,0,0,0-2.38-2.39Z"/><path class="cls-24" d="M428.59,467c0-.16,0-.32-.07-.48-.28-1.6-2.95-1.6-3.22,0,0,.16-.05.32-.08.48a1.83,1.83,0,0,0,.45,1.69,1.79,1.79,0,0,0,1.24.52,1.77,1.77,0,0,0,1.23-.52,1.81,1.81,0,0,0,.45-1.69Z"/><path class="cls-25" d="M33.92,178.65l.1,0-1-.12a1.74,1.74,0,0,0,2.21-.3l-.76.44.18-.05a2.08,2.08,0,0,0,1.44-2.55,3.75,3.75,0,0,0-.16-.43c-.32-.76.13.33,0,0a4.5,4.5,0,0,0-.67-1.11,2,2,0,0,0-2.36-.31c-.16.11.76-.32.13,0a2.09,2.09,0,0,0-.3.14,1.57,1.57,0,0,0-.7,1.71c0-.34,0-.42,0-.26l.24-.88.27-.35a2,2,0,0,0-.3,2.36c.14.25-.11-.5,0,0v-1.06a1.27,1.27,0,0,1-.06.28,2.12,2.12,0,0,0,1.45,2.55h0l-.87-.51.11.11-.44-1.67a2.22,2.22,0,0,0,.21,1.52l.2-1.49-.08.06a1.24,1.24,0,0,0-.18,1.47,1.25,1.25,0,0,0,1.36.55Z"/><path class="cls-26" d="M272.91,2.82a4.21,4.21,0,0,0,.5,0,1.45,1.45,0,0,0,1.43-1.43A1.45,1.45,0,0,0,273.41,0a4.21,4.21,0,0,0-.5,0,1.43,1.43,0,0,0-1.4,1.39,1.42,1.42,0,0,0,1.4,1.39Z"/><path class="cls-27" d="M399.71,178.36c0-.16,0-.32-.07-.48a1.46,1.46,0,0,0-2.8,0c0,.16,0,.32-.07.48a1.52,1.52,0,1,0,2.94,0Z"/><path class="cls-28" d="M403.88,283.75l.08.18-.13-1,0,.17a1.16,1.16,0,0,0,1.4,1.4l.16,0-1-.12a2.15,2.15,0,0,0,2.55-.23,2,2,0,0,0,.15-2.57,2,2,0,0,0-2.52-.51,2,2,0,0,0-.71,2.68Z"/><path class="cls-29" d="M228.41,506.43v2a1.82,1.82,0,1,0,3.64,0v-2a1.86,1.86,0,0,0-1.83-1.83,1.88,1.88,0,0,0-1.83,1.83Z"/><path class="cls-30" d="M26.93,251.12c0,.19-.06.31,0-.1a1.7,1.7,0,0,0,0,.95,1.8,1.8,0,0,0,.45.78l.34.26a1.27,1.27,0,0,1-.48-.47l-.18-.68c0,.13,0,.07,0-.19a1.1,1.1,0,0,0,.29,1.1,2.55,2.55,0,0,0,.31.24c.35.15.41.17.18.07l.21.09a1.66,1.66,0,0,0,1.14-.07c1.19-.5,1.25-1.79.77-2.82a1.67,1.67,0,0,0-3.11.84Z"/><path class="cls-31" d="M1.74,1.57c-.39.58-.62,1.22-.94,1.79-.15.26-.3.52-.44.78A3.3,3.3,0,0,0,0,5.48C-.08,6.56,1.15,7,2,6.6A4.85,4.85,0,0,0,3.54,5.19c.2-.22.41-.41.63-.61a6.57,6.57,0,0,0,.89-1.07A1.93,1.93,0,0,0,4.37.88a2,2,0,0,0-2.63.69Z"/><g id="pointanimation2"><path class="cls-32" d="M409.49,63.06c-.13.26.4-.35,0,0-.14.11-.48.31,0,0,.3-.11.36-.15.17-.09.34,0,.41,0,.22,0a1.08,1.08,0,0,1,.56.14,1.61,1.61,0,0,0-.5-.19c-1.19-.29-2.58.82-2.12,2.11a2.45,2.45,0,0,0,2.52,1.6,3.08,3.08,0,0,0,2.55-1.48,2,2,0,1,0-3.44-2Z"/></g><path class="cls-33" d="M34.24,538.17c2.67,0,2.67-4.15,0-4.15s-2.67,4.15,0,4.15Z"/><path class="cls-34" d="M76.54,495.32l.27.51a4.79,4.79,0,0,0,8.2,0l.27-.51a5.07,5.07,0,0,0-4.37-7.62,5.09,5.09,0,0,0-4.37,2.51,5.15,5.15,0,0,0,0,5.11Z"/><path class="cls-35" d="M289.36,225.28l.64.11a3.52,3.52,0,0,0,3.32-.88,3.57,3.57,0,0,0,1-2.41,3.48,3.48,0,0,0-1-2.41,3.55,3.55,0,0,0-3.32-.88l-.64.1-.79.33a2.51,2.51,0,0,0-.92.85,3.12,3.12,0,0,0-.71,2,3.71,3.71,0,0,0,.45,1.66,3.26,3.26,0,0,0,2,1.52Z"/><g id="pointanimation1"><path class="cls-36" d="M134,19.5l.57-.4a3.86,3.86,0,0,0,1.69-2.19,3.66,3.66,0,0,0-.37-2.84,4.23,4.23,0,0,0-1.32-1.31,3.67,3.67,0,0,0-2.84-.37,4.06,4.06,0,0,0-2.19,1.68l-.4.57a3.32,3.32,0,0,0-.42,2.26,3.36,3.36,0,0,0,1,2,4.13,4.13,0,0,0,1.57.91A3.52,3.52,0,0,0,134,19.5Z"/></g><path class="cls-37" d="M233.57,478.63c5,0,5-7.73,0-7.73s-5,7.73,0,7.73Z"/><path class="cls-38" d="M14.24,324.49a3.06,3.06,0,1,0-3.06-3.06,3.1,3.1,0,0,0,3.06,3.06Z"/></g></g></svg>