<svg xmlns="http://www.w3.org/2000/svg" viewBox="0 0 881.15 551.16"><title>Fichier 16</title><g id="Calque_2" data-name="Calque 2"><g id="Calque_2-2" data-name="Calque 2"><path d="M135.25,472.85V287.41l-67.61,56C72.22,350.47,95.78,387.92,135.25,472.85Z" style="fill:#f2f4f5"/><path d="M13.68,243.9c-5,9.7-20.14,46.48,1.49,101.26L135.25,496.47V480.61C91,384.56,66,346.75,64.22,344.19A130.66,130.66,0,0,1,13.68,243.9Z" style="fill:#f2f4f5"/><path d="M145.26,108.79c68.82,0,125.44,53.09,131.14,120.46,4.64-21.37,11.63-70.57-11.29-107.6-8-1.55-76.28-17.55-99.48-116.91-1.18-.74-5.58-2.84-14.57-.14-2.75,8.33-26.94,74.77-98.72,78-6.13,6.06-74.51,76.3-38.65,153.83C15.83,165.67,74,108.79,145.26,108.79Z" style="fill:#f2f4f5"/><path d="M273.63,240.9l-.14-.22.15-.48A128.53,128.53,0,0,0,145.26,112.05c-70.81,0-128.42,57.59-128.42,128.38A127.55,127.55,0,0,0,65.48,341l67.71-56.11a58.64,58.64,0,1,1,24.11,0l68,55.85A127.4,127.4,0,0,0,273.63,240.9Z" style="fill:#0f1d27"/><path d="M226.6,343.9c-1.38,2-26.71,39.89-71.36,136.72V496L273.85,345.16c19.91-50.42,8.69-85.52,2.88-98.39A130.59,130.59,0,0,1,226.6,343.9Z" style="fill:#f2f4f5"/><path d="M155.24,287.41V472.86c39.49-84.95,63.28-122.6,67.91-129.67Z" style="fill:#9ba4b4"/><path d="M267.49,119.3l-.4-.64-.75-.1c-.74-.11-73.77-11.64-97.67-115.14l-.11-.48-.36-.34c-.22-.21-5.65-5.14-18.94-.85l-.82.26-.24.84c-.22.73-22.29,73.56-96.62,76.48l-.61,0-.44.41c-.81.77-79.84,76.71-38.64,160.59-3.5,6.09-23.7,45.55.34,106.23L138.51,505.83V284h0v-1.62h-1.38a55.37,55.37,0,1,1,16.25,0H152v2.4h0V505.37L276.56,347l.23-.4c24.26-61.21,3.48-100.84.25-106.39C279.24,232.61,297.13,166.34,267.49,119.3ZM52.34,82.56c71.78-3.19,96-69.63,98.72-78,9-2.7,13.39-.6,14.57.14,23.2,99.36,91.44,115.36,99.48,116.91,22.92,37,15.93,86.23,11.29,107.6-5.7-67.37-62.32-120.46-131.14-120.46-71.25,0-129.43,56.88-131.57,127.6C-22.17,158.86,46.21,88.62,52.34,82.56Zm82.91,413.91L15.17,345.16C-6.46,290.38,8.71,253.6,13.68,243.9A130.66,130.66,0,0,0,64.22,344.19c1.73,2.56,26.73,40.37,71,136.42Zm0-23.62c-39.47-84.93-63-122.38-67.61-129.41l67.61-56Zm68.63-245.27a58.64,58.64,0,1,0-70.69,57.31L65.48,341A127.55,127.55,0,0,1,16.84,240.43c0-70.79,57.61-128.38,128.42-128.38A128.53,128.53,0,0,1,273.64,240.2l-.15.48.14.22a127.4,127.4,0,0,1-48.33,99.84l-68-55.85A58.92,58.92,0,0,0,203.88,227.58Zm-48.64,59.83,67.91,55.78c-4.63,7.07-28.42,44.72-67.91,129.67Zm118.61,57.75L155.24,496V480.62c44.65-96.83,70-134.69,71.36-136.72a130.59,130.59,0,0,0,50.13-97.13C282.54,259.64,293.76,294.74,273.85,345.16Z"/><text transform="translate(328.54 327.79)" style="font-size:201.71412658691406px;font-family:Hansief-Rough, Hansief;letter-spacing:0.04000382161644542em">IMAGI<tspan x="0" y="175.2">NARIO</tspan></text></g></g></svg>