<?xml version="1.0" encoding="utf-8"?>
<!-- Generator: Adobe Illustrator 22.1.0, SVG Export Plug-In . SVG Version: 6.00 Build 0)  -->
<svg version="1.1" id="Calque_1" xmlns="http://www.w3.org/2000/svg" xmlns:xlink="http://www.w3.org/1999/xlink" x="0px" y="0px"
	 viewBox="0 0 500 600" style="enable-background:new 0 0 500 600;" xml:space="preserve">
<image style="overflow:visible;" width="890" height="283" id="grosnuage3" xlink:href="/image/Fichier23.png"  transform="matrix(0.48 0 0 0.48 46 358)">
</image>
<g id="potd_x5F_dencre">
	
		<image style="overflow:visible;opacity:0.4;" width="125" height="108" xlink:href="E1EB57A.png"  transform="matrix(1 0 0 1 197.2449 326.2449)">
	</image>
	<g>
		<path style="fill:#183952;" d="M312.9,358v39.4c0,15-12.6,27.3-28,27.3h-50.5c-15.4,0-28-12.3-28-27.3v-33.4
			c0-9.9,6.1-18.9,15.6-22.7c9.7-3.9,22.7-6.2,37-6.2C288.7,335.1,312.9,345.4,312.9,358z"/>
	</g>
</g>
<linearGradient id="encre_3_" gradientUnits="userSpaceOnUse" x1="258.8596" y1="378.6485" x2="258.8596" y2="337.6137">
	<stop  offset="2.347506e-07" style="stop-color:#B8E4E7"/>
	<stop  offset="0.3497" style="stop-color:#BBE4E7"/>
	<stop  offset="0.568" style="stop-color:#C3E3E7"/>
	<stop  offset="0.7501" style="stop-color:#D2E1E7"/>
	<stop  offset="0.9115" style="stop-color:#E6DFE8"/>
	<stop  offset="1" style="stop-color:#F5DDE8"/>
</linearGradient>
<path id="encre" style="fill:url(#encre_3_);" d="M218.5,359.2l1.6-14.5l3.7-1.8l15-1.8l18.8-3.5H272h5.7l8.9,2.9l7.8,3.3l5.5,4.5
	l2.5,3.3v4.5v4.9v2.9l-3.9,3.3c0,0-17.9,12.3-31.8,11.4c-13.9-0.9-41.8-6.9-41.8-6.9l-9.6-6.7"/>
<path style="fill:#1D435B;" d="M229,377.7c0,0,7.1,33.4,8.8,43.1l-3.6-41.2l-4.5-1.9"/>
<ellipse cx="293.4" cy="400.4" rx="2.8" ry="5.8"/>
<ellipse style="fill:#2673A3;" cx="227.2" cy="400.4" rx="4" ry="8.2"/>
<ellipse cx="227.2" cy="400.4" rx="2.8" ry="5.8"/>
<g id="textefond">
	<g>
		<path style="fill:#FFFFFF;" d="M269.1,414.2h-16c-5.8,0-10.6-4.7-10.6-10.6l0,0c0-5.8,4.7-10.6,10.6-10.6h16
			c5.8,0,10.6,4.7,10.6,10.6l0,0C279.7,409.5,275,414.2,269.1,414.2z"/>
	</g>
	<defs>
		<filter id="Adobe_OpacityMaskFilter" filterUnits="userSpaceOnUse" x="242.5" y="393.1" width="37.2" height="21.2">
			
				<feColorMatrix  type="matrix" values="-1 0 0 0 1  0 -1 0 0 1  0 0 -1 0 1  0 0 0 1 0" color-interpolation-filters="sRGB" result="source"/>
		</filter>
	</defs>
	<mask maskUnits="userSpaceOnUse" x="242.5" y="393.1" width="37.2" height="21.2" id="SVGID_1_">
		<g style="filter:url(#Adobe_OpacityMaskFilter);">
			<image style="overflow:visible;" width="42" height="26" xlink:href="E1EB57A.jpg"  transform="matrix(1 0 0 1 240 391)">
			</image>
		</g>
	</mask>
	<g style="opacity:0.3;mask:url(#SVGID_1_);">
		<path d="M269.1,414.2h-16c-5.8,0-10.6-4.7-10.6-10.6l0,0c0-5.8,4.7-10.6,10.6-10.6h16c5.8,0,10.6,4.7,10.6,10.6l0,0
			C279.7,409.5,275,414.2,269.1,414.2z"/>
	</g>
</g>
<g id="texte">
	<g>
		<g>
			<linearGradient id="SVGID_2_" gradientUnits="userSpaceOnUse" x1="250.9136" y1="403.7307" x2="254.0642" y2="403.7307">
				<stop  offset="4.695012e-07" style="stop-color:#F559AA"/>
				<stop  offset="1" style="stop-color:#F6DA61"/>
			</linearGradient>
			<path style="fill:url(#SVGID_2_);" d="M254.1,397.7v12.1h-3.2v-12.1H254.1z"/>
			<linearGradient id="SVGID_3_" gradientUnits="userSpaceOnUse" x1="255.329" y1="403.7307" x2="262.3637" y2="403.7307">
				<stop  offset="4.695012e-07" style="stop-color:#F559AA"/>
				<stop  offset="1" style="stop-color:#F6DA61"/>
			</linearGradient>
			<path style="fill:url(#SVGID_3_);" d="M262.4,397.7v12.1h-2.8l-1.6-5.5v5.5h-2.6v-12.1h2.6l1.8,5.5v-5.5H262.4z"/>
			<linearGradient id="SVGID_4_" gradientUnits="userSpaceOnUse" x1="263.6286" y1="403.7307" x2="271.3108" y2="403.7307">
				<stop  offset="4.695012e-07" style="stop-color:#F559AA"/>
				<stop  offset="1" style="stop-color:#F6DA61"/>
			</linearGradient>
			<path style="fill:url(#SVGID_4_);" d="M271.1,397.7l-1.8,5.5l2,6.6h-3.3l-1.3-5.2v5.2h-3.2v-12.1h3.2v4.7l1.4-4.7H271.1z"/>
		</g>
	</g>
	<defs>
		<filter id="Adobe_OpacityMaskFilter_1_" filterUnits="userSpaceOnUse" x="250.9" y="397.7" width="20.4" height="12.1">
			
				<feColorMatrix  type="matrix" values="-1 0 0 0 1  0 -1 0 0 1  0 0 -1 0 1  0 0 0 1 0" color-interpolation-filters="sRGB" result="source"/>
		</filter>
	</defs>
	<mask maskUnits="userSpaceOnUse" x="250.9" y="397.7" width="20.4" height="12.1" id="SVGID_5_">
		<g style="filter:url(#Adobe_OpacityMaskFilter_1_);">
			<image style="overflow:visible;" width="26" height="17" xlink:href="E1EB57E.jpg"  transform="matrix(1 0 0 1 248 395)">
			</image>
		</g>
	</mask>
	<g style="opacity:0.2;mask:url(#SVGID_5_);">
		<g>
			<path d="M254.1,397.7v12.1h-3.2v-12.1H254.1z"/>
			<path d="M262.4,397.7v12.1h-2.8l-1.6-5.5v5.5h-2.6v-12.1h2.6l1.8,5.5v-5.5H262.4z"/>
			<path d="M271.1,397.7l-1.8,5.5l2,6.6h-3.3l-1.3-5.2v5.2h-3.2v-12.1h3.2v4.7l1.4-4.7H271.1z"/>
		</g>
	</g>
</g>
<linearGradient id="flammesuppport_3_" gradientUnits="userSpaceOnUse" x1="197.3572" y1="163.8723" x2="318.2725" y2="163.8723">
	<stop  offset="2.347506e-07" style="stop-color:#B8E4E7"/>
	<stop  offset="1" style="stop-color:#F5DDE8"/>
</linearGradient>
<path id="flammesuppport" style="fill:url(#flammesuppport_3_);" d="M266.6,230.9l48-83.2c13.6-23.6-13.8-26.7-29.8-51.7
	c-1.9-2.9-5.1-4.7-8.6-4.7h-10c-19.3,0-37.4,9.2-49.2,24.5c-7.8,10.1-15.8,8.2-18.8,14.8c-1.4,2.9-1.1,6.4,0.5,9.2l52.5,91
	C255.5,238.2,262.4,238.2,266.6,230.9z"/>
<g id="fondflamme">
	<g>
		<path style="fill:#183952;" d="M264.1,225.2l31.2-54c15-26-3.8-58.6-33.8-58.6h0c-31.9,0-51.9,34.6-35.9,62.2l29.1,50.4
			C256.8,228.8,262.1,228.8,264.1,225.2z"/>
	</g>
	<defs>
		<filter id="Adobe_OpacityMaskFilter_2_" filterUnits="userSpaceOnUse" x="220" y="112.5" width="80.6" height="115.3">
			
				<feColorMatrix  type="matrix" values="-1 0 0 0 1  0 -1 0 0 1  0 0 -1 0 1  0 0 0 1 0" color-interpolation-filters="sRGB" result="source"/>
		</filter>
	</defs>
	<mask maskUnits="userSpaceOnUse" x="220" y="112.5" width="80.6" height="115.3" id="SVGID_6_">
		<g style="filter:url(#Adobe_OpacityMaskFilter_2_);">
			<image style="overflow:visible;" width="85" height="120" xlink:href="E1EB57D.jpg"  transform="matrix(1 0 0 1 218 110)">
			</image>
		</g>
	</mask>
	<g style="opacity:0.3;mask:url(#SVGID_6_);">
		<path style="fill:#232323;" d="M264.1,225.2l31.2-54c15-26-3.8-58.6-33.8-58.6h0c-31.9,0-51.9,34.6-35.9,62.2l29.1,50.4
			C256.8,228.8,262.1,228.8,264.1,225.2z"/>
	</g>
</g>
<g id="bordurepotdessous">
	<path style="fill:#F4EFEF;" d="M260.3,337.6c-24.7,0-45.4,7.5-50.8,17.6c-0.9,1.7-1.3,3.4-1.3,5.1s0.5,3.5,1.3,5.1
		c5.3,10.1,26.1,17.6,50.8,17.6c28.8,0,52.1-10.2,52.1-22.7S289.1,337.6,260.3,337.6z M260.3,377.6c-21.9,0-39.7-7.7-39.7-17.3
		c0-9.5,17.8-17.3,39.7-17.3s39.7,7.7,39.7,17.3C300,369.9,282.2,377.6,260.3,377.6z"/>
</g>
<g id="bordurepot">
	<g>
		<path style="fill:#F4EFEF;" d="M260.3,334.3c-24.7,0-45.4,7.5-50.8,17.6c-0.9,1.7-1.3,3.4-1.3,5.1s0.5,3.5,1.3,5.1
			c5.3,10.1,26.1,17.6,50.8,17.6c28.8,0,52.1-10.2,52.1-22.7C312.4,344.4,289.1,334.3,260.3,334.3z M260.3,374.3
			c-21.9,0-39.7-7.7-39.7-17.3c0-9.5,17.8-17.3,39.7-17.3S300,347.4,300,357C300,366.5,282.2,374.3,260.3,374.3z"/>
	</g>
	<defs>
		<filter id="Adobe_OpacityMaskFilter_3_" filterUnits="userSpaceOnUse" x="208.2" y="334.3" width="104.3" height="45.4">
			
				<feColorMatrix  type="matrix" values="-1 0 0 0 1  0 -1 0 0 1  0 0 -1 0 1  0 0 0 1 0" color-interpolation-filters="sRGB" result="source"/>
		</filter>
	</defs>
	<mask maskUnits="userSpaceOnUse" x="208.2" y="334.3" width="104.3" height="45.4" id="SVGID_7_">
		<g style="filter:url(#Adobe_OpacityMaskFilter_3_);">
			<image style="overflow:visible;" width="109" height="50" xlink:href="E1EB57B.jpg"  transform="matrix(1 0 0 1 206 332)">
			</image>
		</g>
	</mask>
	<g style="opacity:0.2;mask:url(#SVGID_7_);">
		<path style="fill:#232323;" d="M260.3,334.3c-24.7,0-45.4,7.5-50.8,17.6c-0.9,1.7-1.3,3.4-1.3,5.1s0.5,3.5,1.3,5.1
			c5.3,10.1,26.1,17.6,50.8,17.6c28.8,0,52.1-10.2,52.1-22.7C312.4,344.4,289.1,334.3,260.3,334.3z M260.3,374.3
			c-21.9,0-39.7-7.7-39.7-17.3c0-9.5,17.8-17.3,39.7-17.3S300,347.4,300,357C300,366.5,282.2,374.3,260.3,374.3z"/>
	</g>
</g>
<linearGradient id="flamme_3_" gradientUnits="userSpaceOnUse" x1="227.9622" y1="90.4809" x2="291.2075" y2="90.4809">
	<stop  offset="2.347506e-07" style="stop-color:#B8E4E7"/>
	<stop  offset="1" style="stop-color:#F5DDE8"/>
</linearGradient>
<path id="flamme" style="fill:url(#flamme_3_);" d="M284,89.6c18.6,27.3-2.6,82.2-19.6,57.7c-8.9-12.9-54.4-29.9-28.6-59.9
	c17.7-20.6,26.6-33.5,28.4-49.1C268.3,1.9,268.8,67.2,284,89.6z"/>
<linearGradient id="flamme2_3_" gradientUnits="userSpaceOnUse" x1="249.7658" y1="119.1953" x2="309.8699" y2="119.1953">
	<stop  offset="2.347506e-07" style="stop-color:#B8E4E7"/>
	<stop  offset="1" style="stop-color:#F5DDE8"/>
</linearGradient>
<path id="flamme2" style="fill:url(#flamme2_3_);" d="M304.9,115.6c18.6,27.3-20.6,96.4-19.6,57.7c0.4-15.7-54.4-29.9-28.6-59.9
	c17.7-20.6,26.6-33.5,28.4-49.1C289.1,28,289.6,93.2,304.9,115.6z"/>
<linearGradient id="flamme1_3_" gradientUnits="userSpaceOnUse" x1="201.8019" y1="126.8465" x2="259.7172" y2="126.8465">
	<stop  offset="2.347506e-07" style="stop-color:#B8E4E7"/>
	<stop  offset="1" style="stop-color:#F5DDE8"/>
</linearGradient>
<path id="flamme1" style="fill:url(#flamme1_3_);" d="M254.6,120.3c18.6,27.3-18.9,102.9-24.9,64.7c-2-12.6-41.1-34.1-23.4-66.9
	C219.3,94.2,233,84.5,234.8,69C238.9,32.6,239.4,97.8,254.6,120.3z"/>
<path id="nuage" style="fill:#FFFFFF;" d="M372,168.4c-1.9,0-3.5,0.9-4.6,2.3c-0.5-0.4-1-0.8-1.6-1.1c0.3-0.9,0.4-1.9,0.4-2.9
	c0-5.4-4.4-9.7-9.7-9.7c-4.1,0-7.6,2.5-9,6.1c-1.3-0.6-2.7-0.9-4.2-0.9c-1.1,0-2.1,0.2-3,0.5c0.5-1.4,0.8-2.9,0.8-4.5
	c0-7.6-6.2-13.8-13.8-13.8c-6.7,0-12.2,4.8-13.5,11.1c-2.1,0.9-3.9,2.5-4.9,4.6c-4.5,0.8-7.9,4.8-7.9,9.6c0,1.5,0.4,3,1,4.3
	c-1.8,1.7-2.9,4-3.2,6.6c0,0,0,0-0.1,0c-3.3,0-6.1,2.2-7.1,5.2h-3.7c-1,0-1.8,0.8-1.8,1.8v0.5h-5.7c-1,0-1.8,0.8-1.8,1.8v0.5h-2.8
	c-1,0-1.8,0.8-1.8,1.8v2.7c0,1,0.8,1.8,1.8,1.8h28.4c1,0.7,2.3,1.1,3.6,1.1c3.4,0,6.2-2.7,6.3-6.2c0.2-0.1,0.4-0.2,0.7-0.3
	c1.1,1.2,2.7,1.9,4.5,1.9c3.1,0,5.7-2.3,6.2-5.3c0.1,0,0.2,0,0.4,0.1c-0.2,0.6-0.3,1.2-0.3,1.8c0,3.5,2.8,6.3,6.3,6.3
	c3.5,0,6.3-2.8,6.3-6.3c1,1,2.1,1.7,3.4,2.2c1.8,2.1,4.5,3.5,7.5,3.5c4.7,0,8.6-3.3,9.5-7.8c0.8,0.2,1.6,0.3,2.5,0.3
	c4.8,0,8.9-3.5,9.6-8.2c0.4,0.1,0.8,0.1,1.3,0.1c3.2,0,5.7-2.6,5.7-5.7C377.7,171,375.2,168.4,372,168.4z"/>
<g id="horloge">
	
		<image style="overflow:visible;opacity:0.4;" width="116" height="116" xlink:href="E1EB575.png"  transform="matrix(1 0 0 1 201.6918 89.6918)">
	</image>
	<g>
		<circle style="fill:#FFFFFF;" cx="259.6" cy="147.8" r="33"/>
	</g>
</g>
<linearGradient id="cadrant1_3_" gradientUnits="userSpaceOnUse" x1="239.7598" y1="147.6812" x2="279.3055" y2="147.6812">
	<stop  offset="4.695012e-07" style="stop-color:#F559AA"/>
	<stop  offset="1" style="stop-color:#F6DA61"/>
</linearGradient>
<circle id="cadrant1" style="fill:none;stroke:url(#cadrant1_3_);stroke-width:2.917;stroke-miterlimit:10;" cx="259.5" cy="147.7" r="18.3"/>
<linearGradient id="cadrant_3_" gradientUnits="userSpaceOnUse" x1="219.7533" y1="147.6812" x2="299.3121" y2="147.6812">
	<stop  offset="4.695012e-07" style="stop-color:#F559AA"/>
	<stop  offset="1" style="stop-color:#F6DA61"/>
</linearGradient>
<circle id="cadrant" style="fill:none;stroke:url(#cadrant_3_);stroke-width:2.917;stroke-miterlimit:10;" cx="259.5" cy="147.7" r="38.3"/>
<linearGradient id="cascade_3_" gradientUnits="userSpaceOnUse" x1="261.9304" y1="362.167" x2="261.9304" y2="198.1384">
	<stop  offset="2.347506e-07" style="stop-color:#B8E4E7"/>
	<stop  offset="1" style="stop-color:#F5DDE8"/>
</linearGradient>
<path id="cascade" style="fill:url(#cascade_3_);" d="M278.7,198.3c0.8-0.5,1.8,0,1.8,1l2.7,152.6c0,5.6-4.5,10.2-10.1,10.2h-22.4
	c-5.5,0-10-4.5-10-10.1L240.7,201c0-0.9,1-1.5,1.8-1l11.4,7.3c0,0,0.3,0.3,0.3,0.4l7.2,10.4l0.3-0.4l3.9-5.3l0.7-0.9l3.1-4.3
	l3.7-5.1c0.1-0.1,0.2-0.2,0.3-0.3L278.7,198.3z"/>
<linearGradient id="chute_2_" gradientUnits="userSpaceOnUse" x1="230.3577" y1="573.2803" x2="230.3577" y2="361.5089">
	<stop  offset="0" style="stop-color:#F5DDE8"/>
	<stop  offset="1" style="stop-color:#B8E4E7"/>
</linearGradient>
<path id="chute" style="fill:url(#chute_2_);" d="M230.4,573.3L230.4,573.3c-4.6,0-8.3-3.8-8.3-8.3V369.9c0-4.6,3.8-8.3,8.3-8.3h0
	c4.6,0,8.3,3.8,8.3,8.3v195.1C238.7,569.5,234.9,573.3,230.4,573.3z"/>
<linearGradient id="chute1_2_" gradientUnits="userSpaceOnUse" x1="291.0473" y1="573.4246" x2="291.0473" y2="361.6531">
	<stop  offset="0" style="stop-color:#F5DDE8"/>
	<stop  offset="1" style="stop-color:#B8E4E7"/>
</linearGradient>
<path id="chute1" style="fill:url(#chute1_2_);" d="M291,573.4L291,573.4c-2.8,0-5-2.3-5-5V366.7c0-2.8,2.3-5,5-5h0c2.8,0,5,2.3,5,5
	v201.7C296.1,571.2,293.8,573.4,291,573.4z"/>
<path id="reflet" style="opacity:0.66;fill:#FFFFFF;" d="M230.3,390.4L230.3,390.4c0.9,0,1.7,0.5,1.7,1.1v3.3c0,0.6,0.8,1.1,1.7,1.1
	l0,0c0.9,0,1.7-0.5,1.7-1.1v-1.4c0-0.6,0.8-1.1,1.7-1.1h0c0.9,0,1.7-0.5,1.7-1.1v-20.6c0-0.6-0.8-1.1-1.7-1.1h0
	c-0.9,0-1.7,0.5-1.7,1.1v1.4c0,0.6-0.8,1.1-1.7,1.1l0,0c-0.9,0-1.7-0.5-1.7-1.1v-3.3c0-0.6-0.8-1.1-1.7-1.1l0,0
	c-0.9,0-1.7,0.5-1.7,1.1v5.7c0,0.6-0.8,1.1-1.7,1.1l0,0c-0.9,0-1.7-0.5-1.7-1.1v-1.9c0-0.6-0.8-1.1-1.7-1.1l0,0
	c-0.9,0-1.7,0.5-1.7,1.1v20.6c0,0.6,0.8,1.1,1.7,1.1l0,0c0.9,0,1.7,0.5,1.7,1.1v1.9c0,0.6,0.8,1.1,1.7,1.1l0,0
	c0.9,0,1.7-0.5,1.7-1.1v-5.7C228.6,390.9,229.3,390.4,230.3,390.4z"/>
<path id="reflet2" style="opacity:0.66;fill:#FFFFFF;" d="M230.6,489.5L230.6,489.5c-0.9,0-1.7,0.5-1.7,1.2v3.5
	c0,0.6-0.8,1.2-1.7,1.2l0,0c-0.9,0-1.7-0.5-1.7-1.2v-1.5c0-0.6-0.8-1.2-1.7-1.2l0,0c-0.9,0-1.7-0.5-1.7-1.2v-22
	c0-0.6,0.8-1.2,1.7-1.2l0,0c0.9,0,1.7,0.5,1.7,1.2v1.5c0,0.6,0.8,1.2,1.7,1.2l0,0c0.9,0,1.7-0.5,1.7-1.2v-3.5c0-0.6,0.8-1.2,1.7-1.2
	l0,0c0.9,0,1.7,0.5,1.7,1.2v6.1c0,0.6,0.8,1.2,1.7,1.2l0,0c0.9,0,1.7-0.5,1.7-1.2v-2.1c0-0.6,0.8-1.2,1.7-1.2l0,0
	c0.9,0,1.7,0.5,1.7,1.2v22c0,0.6-0.8,1.2-1.7,1.2l0,0c-0.9,0-1.7,0.5-1.7,1.2v2.1c0,0.6-0.8,1.2-1.7,1.2l0,0c-0.9,0-1.7-0.5-1.7-1.2
	v-6.1C232.3,490,231.5,489.5,230.6,489.5z"/>
<path id="reflet1" style="opacity:0.66;fill:#FFFFFF;" d="M291,391.1L291,391.1c-0.5,0-0.9,0.5-0.9,1.2v3.7c0,0.7-0.4,1.2-0.9,1.2
	l0,0c-0.5,0-0.9-0.5-0.9-1.2v-1.6c0-0.7-0.4-1.2-0.9-1.2l0,0c-0.5,0-0.9-0.5-0.9-1.2v-23c0-0.7,0.4-1.2,0.9-1.2l0,0
	c0.5,0,0.9,0.5,0.9,1.2v1.6c0,0.7,0.4,1.2,0.9,1.2l0,0c0.5,0,0.9-0.5,0.9-1.2v-3.7c0-0.7,0.4-1.2,0.9-1.2l0,0c0.5,0,0.9,0.5,0.9,1.2
	v6.4c0,0.7,0.4,1.2,0.9,1.2l0,0c0.5,0,0.9-0.5,0.9-1.2v-2.2c0-0.7,0.4-1.2,0.9-1.2l0,0c0.5,0,0.9,0.5,0.9,1.2v23
	c0,0.7-0.4,1.2-0.9,1.2l0,0c-0.5,0-0.9,0.5-0.9,1.2v2.2c0,0.7-0.4,1.2-0.9,1.2l0,0c-0.5,0-0.9-0.5-0.9-1.2v-6.4
	C292,391.7,291.6,391.1,291,391.1z"/>
<path id="reflet3" style="opacity:0.66;fill:#FFFFFF;" d="M291,509.1L291,509.1c-0.5,0-0.9,0.4-0.9,0.9v2.8c0,0.5-0.4,0.9-0.9,0.9
	l0,0c-0.5,0-0.9-0.4-0.9-0.9v-1.2c0-0.5-0.4-0.9-0.9-0.9l0,0c-0.5,0-0.9-0.4-0.9-0.9V492c0-0.5,0.4-0.9,0.9-0.9l0,0
	c0.5,0,0.9,0.4,0.9,0.9v1.2c0,0.5,0.4,0.9,0.9,0.9l0,0c0.5,0,0.9-0.4,0.9-0.9v-2.8c0-0.5,0.4-0.9,0.9-0.9l0,0c0.5,0,0.9,0.4,0.9,0.9
	v5c0,0.5,0.4,0.9,0.9,0.9l0,0c0.5,0,0.9-0.4,0.9-0.9v-1.7c0-0.5,0.4-0.9,0.9-0.9l0,0c0.5,0,0.9,0.4,0.9,0.9v17.8
	c0,0.5-0.4,0.9-0.9,0.9l0,0c-0.5,0-0.9,0.4-0.9,0.9v1.7c0,0.5-0.4,0.9-0.9,0.9l0,0c-0.5,0-0.9-0.4-0.9-0.9v-5
	C292,509.6,291.6,509.1,291,509.1z"/>
<linearGradient id="aiguille_3_" gradientUnits="userSpaceOnUse" x1="258.1501" y1="170.4251" x2="261.3912" y2="170.4251">
	<stop  offset="4.695012e-07" style="stop-color:#F559AA"/>
	<stop  offset="1" style="stop-color:#F6DA61"/>
</linearGradient>
<path id="aiguille" style="fill:url(#aiguille_3_);" d="M259.8,193L259.8,193c-0.9,0-1.6-0.7-1.6-1.6v-41.8c0-0.9,0.7-1.6,1.6-1.6
	l0,0c0.9,0,1.6,0.7,1.6,1.6v41.8C261.4,192.2,260.7,193,259.8,193z"/>
<linearGradient id="supportaiguille_3_" gradientUnits="userSpaceOnUse" x1="253.2885" y1="148.8718" x2="266.2529" y2="148.8718">
	<stop  offset="4.695012e-07" style="stop-color:#F559AA"/>
	<stop  offset="1" style="stop-color:#F6DA61"/>
</linearGradient>
<circle id="supportaiguille" style="fill:url(#supportaiguille_3_);" cx="259.8" cy="148.9" r="6.5"/>
<path id="nuage1" style="fill:#FFFFFF;" d="M250.2,199.9h-2.8v-0.5c0-1-0.8-1.8-1.8-1.8H240v-0.5c0-1-0.8-1.8-1.8-1.8h-3.7
	c-1-3-3.8-5.2-7.1-5.2c0,0,0,0-0.1,0c-0.3-2.6-1.4-4.9-3.2-6.6c0.6-1.3,1-2.7,1-4.3c0-4.8-3.4-8.7-7.9-9.6c-1-2.1-2.8-3.7-4.9-4.6
	c-1.3-6.3-6.8-11.1-13.5-11.1c-7.6,0-13.8,6.2-13.8,13.8c0,1.6,0.3,3.1,0.8,4.5c-1-0.3-2-0.5-3-0.5c-1.5,0-2.9,0.3-4.2,0.9
	c-1.4-3.6-4.9-6.1-9-6.1c-5.4,0-9.7,4.4-9.7,9.7c0,1,0.2,2,0.4,2.9c-0.6,0.3-1.1,0.7-1.6,1.1c-1-1.4-2.7-2.3-4.6-2.3
	c-3.2,0-5.7,2.6-5.7,5.7c0,3.2,2.6,5.7,5.7,5.7c0.4,0,0.9-0.1,1.3-0.1c0.8,4.6,4.8,8.2,9.6,8.2c0.9,0,1.7-0.1,2.5-0.3
	c0.9,4.4,4.8,7.8,9.5,7.8c3,0,5.7-1.4,7.5-3.5c1.3-0.5,2.4-1.2,3.4-2.2c0,3.5,2.8,6.3,6.3,6.3c3.5,0,6.3-2.8,6.3-6.3
	c0-0.6-0.1-1.2-0.3-1.8c0.1,0,0.2,0,0.4-0.1c0.5,3,3.1,5.3,6.2,5.3c1.8,0,3.4-0.7,4.5-1.9c0.2,0.1,0.4,0.2,0.7,0.3
	c0.1,3.4,2.9,6.2,6.3,6.2c1.3,0,2.6-0.4,3.6-1.1h28.4c1,0,1.8-0.8,1.8-1.8v-2.7C252,200.7,251.2,199.9,250.2,199.9z"/>
</svg>
